<?xml version="1.0" standalone="no"?>
<!DOCTYPE svg PUBLIC "-//W3C//DTD SVG 20010904//EN"
 "http://www.w3.org/TR/2001/REC-SVG-20010904/DTD/svg10.dtd">
<svg version="1.0" xmlns="http://www.w3.org/2000/svg"
 width="1500.000000pt" height="875.000000pt" viewBox="0 0 1500.000000 875.000000"
 preserveAspectRatio="xMidYMid meet">

<g transform="translate(0.000000,875.000000) scale(0.100000,-0.100000)"
fill="#000000" stroke="none">
<path d="M420 4425 l0 -3935 7100 0 7100 0 0 3935 0 3935 -7100 0 -7100 0 0
-3935z m14180 0 l0 -3915 -7080 0 -7080 0 0 3915 0 3915 7080 0 7080 0 0
-3915z"/>
<path d="M7285 7624 c-312 -24 -595 -84 -852 -180 -1005 -374 -1734 -1261
-1912 -2324 -45 -269 -52 -646 -17 -900 72 -524 267 -1002 577 -1416 88 -118
228 -282 242 -283 4 -1 15 14 24 33 l16 35 -63 68 c-83 91 -222 276 -295 393
-300 485 -445 995 -445 1570 0 463 96 883 296 1290 432 882 1239 1470 2209
1612 198 29 565 31 755 5 693 -97 1283 -401 1751 -903 661 -708 926 -1685 719
-2653 -66 -311 -189 -638 -338 -895 -38 -65 -50 -95 -46 -112 4 -13 10 -26 14
-29 13 -8 122 173 204 340 504 1019 393 2245 -286 3152 -116 155 -260 314
-390 430 -472 421 -1018 672 -1628 748 -124 15 -439 26 -535 19z"/>
<path d="M7335 7493 c-416 -19 -823 -129 -1195 -324 -547 -287 -1021 -791
-1273 -1354 -407 -911 -325 -1970 215 -2787 98 -147 300 -400 311 -388 2 3 39
61 82 130 42 69 143 222 224 340 159 232 211 313 211 324 0 4 -27 49 -61 99
-301 454 -397 1029 -262 1572 85 345 277 673 540 926 301 289 640 454 1076
524 30 5 37 10 37 29 0 54 78 112 135 102 39 -8 84 -50 91 -86 6 -26 7 -26
147 -38 258 -21 467 -79 695 -192 555 -276 938 -787 1053 -1405 30 -158 36
-431 15 -595 -27 -202 -95 -441 -166 -580 -12 -23 -20 -43 -18 -44 2 -2 52
-31 113 -67 86 -50 132 -86 210 -164 100 -99 263 -306 314 -397 14 -26 28 -48
31 -48 13 0 142 243 203 382 310 703 325 1513 40 2233 -422 1068 -1422 1773
-2563 1808 -74 2 -166 2 -205 0z m545 -178 c123 -20 226 -38 228 -40 3 -2 -1
-48 -8 -101 l-13 -96 -56 7 c-31 4 -60 9 -64 12 -5 3 -5 23 -2 44 6 37 5 39
-19 39 -14 0 -26 -3 -26 -7 0 -3 -14 -92 -30 -197 -17 -105 -31 -200 -33 -210
-1 -14 6 -22 21 -25 28 -7 27 -4 18 -68 -4 -31 -12 -53 -19 -53 -28 1 -237 37
-243 43 -3 3 -2 29 3 59 8 50 10 53 36 50 17 -2 27 2 27 10 0 7 15 106 34 221
18 114 29 207 25 207 -4 0 -14 3 -23 6 -12 5 -17 -4 -22 -36 l-7 -42 -56 7
c-31 4 -60 10 -64 14 -5 5 -1 48 7 97 9 49 16 92 16 97 0 4 10 5 23 2 12 -2
123 -21 247 -40z m-906 -81 c15 -47 25 -91 23 -98 -4 -11 -100 -46 -126 -46
-7 0 -17 14 -22 30 -6 17 -13 30 -16 30 -14 0 -119 -33 -127 -40 -7 -7 29
-150 38 -150 2 0 23 7 46 15 23 8 48 15 54 15 13 0 49 -98 41 -110 -3 -4 -26
-13 -52 -20 -27 -7 -49 -14 -51 -15 -8 -7 43 -155 53 -155 6 0 39 10 74 21 55
19 62 24 57 43 -19 68 -22 62 49 86 37 12 70 18 74 14 12 -16 63 -185 57 -192
-6 -5 -465 -152 -478 -152 -7 0 -38 86 -38 105 0 6 11 15 24 21 l23 9 -65 208
-65 208 -30 -3 c-28 -3 -31 1 -48 49 -10 31 -14 55 -8 59 8 5 464 150 480 153
4 1 19 -38 33 -85z m1591 -119 c121 -53 223 -99 226 -103 6 -6 -58 -163 -72
-176 -3 -4 -36 7 -72 24 l-66 30 14 34 14 34 -57 25 c-31 14 -63 27 -70 29
-11 3 -78 -129 -69 -138 1 -1 24 -12 50 -23 26 -11 47 -25 47 -30 0 -20 -40
-101 -50 -101 -6 0 -28 9 -50 20 -22 11 -42 20 -45 20 -7 0 -65 -127 -65 -141
0 -9 130 -73 135 -67 1 2 7 18 15 36 7 18 16 35 20 37 13 8 130 -46 130 -60 0
-10 -65 -167 -76 -183 -2 -3 -463 196 -472 203 -1 1 8 25 20 54 22 48 25 51
53 47 l30 -5 87 200 86 200 -24 11 c-13 6 -24 14 -24 18 0 22 45 110 54 106 6
-2 110 -48 231 -101z m-2238 -88 c6 -7 37 -59 69 -116 l57 -103 -17 -53 c-16
-52 -19 -55 -94 -96 -42 -23 -79 -43 -81 -45 -3 -2 64 -130 75 -143 2 -2 15 1
28 7 23 10 27 8 50 -33 14 -24 26 -48 26 -54 0 -10 -188 -120 -219 -128 -12
-3 -25 10 -44 46 l-28 50 21 11 c12 6 20 17 18 25 -2 7 -48 95 -103 194 -75
135 -104 179 -115 175 -33 -13 -43 -7 -71 41 l-28 50 172 98 c167 94 173 97
222 91 28 -3 55 -11 62 -17z m2839 -294 c46 -38 84 -72 84 -76 0 -17 -72 -96
-83 -91 -18 6 -191 -404 -178 -420 7 -8 -2 -25 -30 -59 l-40 -47 -80 67 c-86
72 -84 63 -27 130 15 18 30 28 33 23 9 -14 22 -12 28 5 9 21 -80 92 -95 77 -8
-8 -8 -15 0 -24 8 -10 1 -24 -28 -58 l-38 -44 -53 42 c-30 23 -66 52 -81 65
l-28 23 39 46 c24 30 42 43 48 37 6 -6 76 38 194 122 217 155 197 138 179 149
-11 7 -6 18 24 54 20 25 40 46 43 46 3 0 43 -30 89 -67z m-3261 -300 l204
-188 0 -50 c1 -50 1 -50 -116 -177 -116 -127 -118 -128 -161 -128 -43 0 -47 4
-245 187 l-202 188 -3 55 -2 55 107 115 c109 117 123 127 181 129 30 1 55 -19
237 -186z m3705 -144 c39 -61 74 -117 77 -125 3 -8 -54 -75 -151 -176 -86 -88
-155 -163 -153 -165 2 -1 98 33 213 76 160 61 212 77 220 68 7 -7 41 -58 77
-114 l66 -103 -52 -35 c-50 -34 -52 -34 -67 -16 -14 18 -23 14 -195 -99 -99
-64 -179 -121 -178 -126 1 -5 4 -16 7 -24 4 -10 -8 -24 -40 -43 -25 -15 -50
-27 -54 -25 -10 4 -130 185 -130 197 0 5 21 23 48 40 40 26 49 29 58 16 6 -8
14 -15 17 -15 4 0 48 27 98 60 50 33 86 60 79 60 -9 0 -225 -56 -332 -86 -12
-4 -26 8 -44 36 -24 36 -26 44 -15 62 10 17 129 165 210 262 19 23 19 23 -96
-51 -81 -52 -94 -68 -72 -90 7 -7 -5 -20 -41 -43 -29 -19 -55 -29 -60 -24 -14
15 -141 216 -138 218 2 1 22 14 45 29 51 32 57 33 74 7 13 -19 21 -15 197 100
100 65 182 124 182 129 0 5 -4 13 -10 16 -25 15 4 47 87 94 0 1 33 -49 73
-110z m-4362 -176 c26 -15 49 -28 51 -30 2 -1 -1 -13 -6 -26 -11 -23 -5 -27
185 -127 108 -57 197 -100 199 -94 11 32 21 37 50 25 15 -6 39 -20 51 -30 l24
-18 -37 -74 c-21 -41 -49 -93 -62 -116 l-25 -43 -49 25 c-51 26 -56 34 -39 65
9 17 2 24 -60 55 -38 19 -72 35 -75 35 -2 0 -18 -27 -34 -59 l-30 -59 71 -37
71 -38 17 23 17 22 52 -26 51 -27 -61 -117 c-34 -64 -63 -118 -64 -119 -1 -2
-25 10 -53 25 -37 19 -50 31 -46 42 3 8 7 21 8 28 0 8 -79 56 -184 112 -177
95 -210 109 -210 93 0 -5 -4 -14 -9 -21 -7 -11 -19 -9 -60 12 -28 15 -51 31
-51 36 0 7 104 213 116 228 3 5 102 -47 108 -57 4 -5 2 -12 -4 -16 -22 -14 -7
-35 46 -65 31 -17 62 -29 70 -26 10 4 64 95 64 109 0 10 -133 70 -136 62 -16
-40 -22 -41 -79 -11 l-55 29 62 118 c35 66 64 119 66 119 2 0 24 -12 50 -27z
m4548 -915 l41 -29 54 20 c30 12 57 21 61 21 4 0 -2 -27 -14 -60 l-20 -60 42
-50 42 -50 -65 0 -65 0 -32 -50 c-18 -27 -35 -50 -39 -50 -4 0 -15 25 -25 55
l-17 54 -59 17 c-33 9 -60 19 -59 23 0 3 21 22 47 42 l47 35 -3 63 c-4 70 -8
69 64 19z m-4631 -210 c6 -56 8 -58 58 -89 l52 -32 -45 -18 c-71 -30 -74 -33
-89 -94 l-14 -59 -42 48 -41 48 -62 -4 c-34 -1 -62 -1 -62 2 0 3 14 25 30 50
36 53 36 55 10 116 -11 26 -19 48 -17 50 1 2 29 -4 61 -12 l57 -15 47 40 c26
22 48 36 49 33 1 -4 4 -33 8 -64z m4665 -433 l47 -34 51 19 c29 11 56 20 62
20 5 0 0 -26 -11 -57 l-19 -56 40 -51 39 -51 -64 -3 -63 -3 -33 -50 c-17 -28
-35 -47 -40 -42 -4 4 -16 31 -26 58 -18 49 -20 50 -76 65 -31 8 -57 17 -57 20
1 3 23 22 49 42 l49 38 -5 60 c-3 33 -2 60 2 60 4 0 29 -16 55 -35z m-4654
-263 c4 -25 15 -40 48 -60 23 -15 42 -31 43 -37 0 -5 -22 -19 -50 -30 -50 -20
-52 -23 -65 -78 -8 -31 -17 -57 -21 -57 -4 0 -23 21 -42 46 l-34 46 -62 -6
c-35 -4 -63 -4 -63 -1 0 4 14 27 32 52 l31 47 -18 50 c-9 28 -20 56 -22 63 -3
8 14 7 57 -4 l61 -16 47 40 47 40 3 -31 c1 -17 5 -46 8 -64z m4512 -387 l49
-34 51 19 c29 11 56 20 62 20 5 0 0 -25 -10 -56 -21 -61 -22 -60 28 -121 l34
-43 -65 0 -65 0 -32 -50 c-18 -27 -35 -50 -39 -50 -3 0 -15 26 -26 57 l-20 57
-57 15 c-32 8 -58 17 -57 20 0 4 22 22 48 42 l47 37 -4 61 c-2 33 -2 61 2 61
3 0 28 -16 54 -35z m-4298 -214 l0 -59 58 -36 57 -35 -40 -16 c-22 -9 -49 -19
-60 -24 -14 -5 -24 -27 -35 -71 l-16 -64 -39 52 -40 52 -62 -6 c-35 -4 -63 -3
-63 1 0 3 14 27 32 52 l31 46 -17 46 c-33 85 -34 82 20 65 67 -20 76 -18 120
21 21 19 42 34 47 35 4 0 7 -27 7 -59z"/>
<path d="M6185 6888 c-11 -6 -30 -17 -42 -24 l-22 -14 36 -64 c36 -64 36 -65
62 -51 66 35 66 35 26 103 -20 34 -37 62 -38 62 -1 0 -11 -6 -22 -12z"/>
<path d="M8912 6438 c-37 -23 -39 -29 -13 -52 18 -16 19 -15 35 25 9 23 15 43
14 45 -2 1 -18 -6 -36 -18z"/>
<path d="M5580 6404 l-55 -56 90 -85 c50 -47 123 -114 163 -151 l73 -65 45 44
c77 74 82 61 -93 223 -87 80 -160 146 -163 146 -3 0 -30 -25 -60 -56z"/>
<path d="M7317 6606 c-7 -8 -22 -56 -32 -108 -18 -95 -98 -417 -180 -723 -61
-232 -122 -506 -216 -980 -43 -220 -79 -403 -79 -407 0 -17 34 -38 61 -38 36
0 41 10 69 150 26 127 159 738 166 763 3 10 8 17 10 15 5 -6 -19 -204 -77
-636 -37 -274 -49 -386 -41 -394 16 -16 60 -13 82 7 12 11 20 31 20 52 0 35
34 267 99 678 52 328 93 624 127 923 16 133 31 242 35 242 4 0 9 -15 11 -32 3
-18 28 -170 57 -338 28 -168 80 -518 115 -779 54 -402 66 -476 82 -488 23 -17
45 -17 68 0 18 13 18 19 -3 168 -20 138 -174 1067 -187 1129 -4 17 -2 22 5 15
26 -27 143 -466 261 -990 34 -148 64 -273 66 -277 8 -12 69 -9 82 4 7 7 12 21
12 32 0 35 -107 425 -184 672 -128 411 -174 586 -282 1064 -31 140 -64 263
-72 273 -18 21 -55 22 -75 3z"/>
<path d="M7497 6492 c4 -18 15 -21 81 -27 268 -23 467 -78 696 -192 851 -424
1240 -1453 887 -2342 -33 -81 -39 -106 -31 -122 6 -11 15 -17 20 -14 12 8 84
195 114 297 184 634 14 1341 -437 1825 -320 343 -786 567 -1224 590 -110 6
-112 5 -106 -15z"/>
<path d="M7095 6480 c-356 -74 -666 -236 -922 -484 -187 -180 -292 -323 -398
-541 -295 -606 -253 -1314 114 -1882 29 -46 57 -83 61 -83 5 0 12 9 15 20 5
15 -8 43 -44 99 -148 231 -250 516 -281 783 -18 154 -8 442 20 582 146 732
708 1305 1430 1457 101 21 120 30 120 57 0 15 -4 15 -115 -8z"/>
<path d="M8390 4773 c-8 -3 -49 -25 -90 -48 -41 -23 -187 -99 -325 -170 -475
-244 -730 -377 -739 -385 -15 -15 43 -24 60 -9 14 11 15 10 12 -7 -8 -51 11
-42 901 422 259 134 288 156 260 190 -12 14 -51 17 -79 7z"/>
<path d="M8380 4644 c-36 -19 -275 -143 -532 -276 -258 -133 -468 -245 -468
-249 0 -5 17 -13 38 -18 20 -6 73 -22 117 -35 43 -14 81 -23 83 -21 2 2 -4 17
-12 34 -26 50 -20 80 23 120 24 23 185 111 440 241 302 154 401 209 401 222 0
26 -16 22 -90 -18z"/>
<path d="M8432 4564 c-59 -31 -248 -130 -421 -221 -173 -90 -320 -171 -327
-181 -34 -44 5 -141 65 -165 59 -24 91 -69 91 -128 0 -45 2 -49 23 -49 13 0
57 17 98 39 598 314 774 401 805 401 l34 0 -81 158 c-44 86 -90 167 -101 180
-33 34 -68 27 -186 -34z"/>
<path d="M6230 4330 c-10 -18 1 -60 15 -60 8 0 559 -171 885 -275 292 -93 601
-185 620 -185 15 0 32 39 25 59 -7 24 30 11 -445 157 -223 69 -472 147 -555
174 -319 103 -478 150 -505 150 -19 0 -33 -7 -40 -20z"/>
<path d="M6245 4238 c-3 -7 -37 -116 -75 -243 -39 -126 -84 -272 -101 -323
-16 -51 -29 -96 -29 -101 0 -4 69 -11 153 -14 448 -19 854 -151 1226 -400 40
-27 77 -45 81 -40 13 13 49 137 42 144 -5 5 -515 164 -832 261 -55 17 -107 46
-114 63 -14 38 -3 104 39 243 55 177 60 187 98 203 41 17 54 14 540 -140 230
-72 422 -129 428 -126 24 15 4 34 -58 52 -104 32 -818 255 -1098 343 -319 100
-294 94 -300 78z"/>
<path d="M8750 4198 c0 -6 12 -32 26 -56 l27 -46 18 23 c22 26 25 61 7 79 -15
15 -78 16 -78 0z"/>
<path d="M8639 4151 c-645 -337 -773 -401 -805 -401 -39 0 -41 -6 -17 -47 l16
-29 51 34 c86 59 364 188 506 235 74 25 194 58 265 72 72 15 131 29 133 30 3
3 -69 145 -73 145 -1 0 -35 -17 -76 -39z"/>
<path d="M8770 4013 c-290 -46 -629 -174 -872 -329 -65 -42 -70 -48 -54 -59
16 -12 16 -14 1 -23 -10 -5 -15 -16 -14 -26 3 -13 27 -2 119 55 239 149 487
245 772 299 l117 22 -16 34 c-9 19 -19 33 -22 33 -3 -1 -17 -4 -31 -6z"/>
<path d="M6762 3952 c-23 -23 -102 -256 -102 -300 0 -59 -13 -54 857 -322 74
-23 108 -38 122 -56 l20 -25 51 158 c65 203 69 231 38 260 -25 23 -39 28 -552
188 -395 123 -406 125 -434 97z"/>
<path d="M8691 3895 c-62 -14 -183 -48 -267 -77 l-154 -52 117 -225 c106 -206
117 -231 117 -281 1 -70 -26 -125 -82 -164 -76 -54 -193 -44 -254 22 -14 15
-74 120 -133 234 -58 114 -111 210 -116 214 -17 10 -107 -65 -118 -99 -82
-264 -113 -356 -127 -376 -9 -13 -41 -34 -70 -47 -49 -22 -54 -27 -54 -56 0
-60 113 -600 129 -615 11 -11 27 -14 58 -9 24 3 43 4 43 1 0 -9 -60 -35 -81
-35 -18 0 -20 -2 -9 -16 18 -21 46 -35 100 -50 l45 -12 -73 -1 c-70 -1 -72 -2
-67 -23 3 -13 12 -54 20 -93 40 -181 114 -352 195 -452 64 -79 175 -154 263
-178 119 -32 294 -9 607 82 527 152 978 411 1083 622 31 63 36 140 13 196
l-15 34 -68 -1 c-116 -1 -168 31 -230 141 -74 133 -251 272 -418 329 -73 24
-93 27 -225 26 -131 0 -152 -2 -223 -27 -246 -86 -425 -232 -509 -415 -64
-139 -73 -368 -22 -537 37 -125 40 -145 20 -145 -41 0 -96 221 -96 386 0 225
71 390 232 539 237 220 557 303 828 214 107 -36 202 -89 308 -176 l33 -27 -26
60 c-42 96 -95 185 -137 230 -21 22 -38 46 -38 53 0 18 36 13 55 -9 10 -12 25
-18 32 -16 7 3 13 -1 13 -10 0 -12 82 -180 94 -191 7 -7 62 19 84 39 14 14 22
17 22 8 0 -7 -18 -31 -41 -52 l-41 -39 24 -55 c12 -31 29 -58 36 -61 7 -3 27
4 43 16 23 18 29 19 29 6 0 -8 -16 -23 -35 -32 -40 -19 -39 -22 2 -110 34 -74
71 -97 158 -101 93 -4 124 15 148 88 34 104 17 228 -50 368 -45 96 -213 346
-296 442 -138 160 -281 257 -444 301 -43 12 -91 28 -106 36 -28 14 -97 100
-132 166 -24 45 -33 46 -194 12z m833 -1617 c-149 -297 -483 -494 -744 -437
-25 5 -96 16 -158 23 -139 18 -232 57 -293 123 -51 55 -49 78 7 77 48 -1 142
-43 251 -113 44 -28 93 -54 110 -57 18 -3 61 2 104 14 41 11 94 23 119 27 233
36 489 189 595 358 16 25 31 44 33 42 2 -1 -9 -27 -24 -57z"/>
<path d="M8198 3732 c-21 -10 -38 -21 -38 -26 0 -5 50 -105 110 -224 61 -118
110 -226 110 -238 0 -31 -33 -64 -64 -64 -40 0 -74 47 -172 244 -53 105 -101
197 -108 204 -11 11 -19 9 -49 -8 -21 -12 -37 -24 -37 -27 0 -12 184 -365 213
-409 46 -69 77 -88 140 -88 99 0 167 64 167 159 0 47 -10 73 -86 222 -84 163
-144 274 -147 272 -1 0 -19 -8 -39 -17z"/>
<path d="M6017 3509 c-14 -49 -15 -49 122 -49 415 0 854 -136 1212 -374 62
-42 116 -73 120 -69 4 5 11 20 14 34 6 25 -1 32 -107 103 -109 72 -309 175
-450 230 -214 84 -479 136 -734 143 l-171 6 -6 -24z"/>
<path d="M5977 3412 c-10 -17 -80 -118 -156 -224 -75 -106 -170 -241 -209
-300 -406 -606 -491 -990 -269 -1225 149 -158 691 -445 1040 -552 138 -42 344
-73 458 -69 94 3 112 7 165 33 38 20 68 44 85 70 43 63 45 80 9 105 l-31 22
-30 -28 c-30 -29 -39 -23 -14 10 20 27 19 48 -7 100 -14 30 -26 42 -36 39 -12
-5 -12 -3 1 18 8 13 17 42 19 64 l3 40 -47 5 c-70 8 -70 20 -1 20 l61 0 31 78
c17 42 31 81 31 86 0 5 -25 6 -56 3 -54 -6 -56 -5 -34 10 12 9 42 18 66 21
l43 5 31 91 c32 98 36 126 20 156 -8 16 -8 18 5 14 11 -5 15 1 15 24 0 40 9
62 25 62 14 0 30 -53 21 -69 -4 -5 -1 -11 5 -13 9 -3 9 -9 0 -23 -16 -29 -60
-188 -54 -198 3 -4 17 -13 31 -18 l27 -10 -33 -16 c-34 -16 -65 -53 -81 -95
-12 -32 2 -48 41 -48 15 0 28 -4 28 -10 0 -13 -46 -13 -71 0 -17 10 -22 5 -39
-34 -52 -122 -47 -170 25 -242 58 -58 98 -65 169 -30 136 67 211 210 276 525
81 396 58 621 -86 867 -34 57 -36 121 -10 219 9 32 16 67 16 76 0 30 -224 174
-398 256 -306 143 -543 199 -887 210 l-180 5 -18 -30z m69 -244 c-19 -40 -88
-183 -154 -318 -141 -289 -214 -452 -239 -535 -25 -82 -25 -293 0 -385 32
-122 92 -225 181 -316 45 -45 108 -96 140 -115 33 -18 54 -35 48 -37 -18 -6
-152 37 -229 74 -92 44 -174 122 -210 201 -25 53 -27 69 -28 181 0 138 9 118
-86 191 -29 23 -31 28 -26 74 3 35 23 87 65 171 86 170 541 886 563 886 4 0
-7 -33 -25 -72z"/>
<path d="M7566 3203 c-21 -61 -21 -63 12 -63 28 0 62 26 62 47 0 14 -39 63
-50 63 -4 0 -15 -21 -24 -47z"/>
</g>
</svg>
