<?xml version="1.0" encoding="UTF-8"?>
<svg xmlns="http://www.w3.org/2000/svg" xmlns:xlink="http://www.w3.org/1999/xlink" width="800px" height="467px" viewBox="0 0 800 467" version="1.1">
<g id="surface1">
<path style=" stroke:none;fill-rule:nonzero;fill:rgb(0%,0%,0%);fill-opacity:1;" d="M 0 233.445312 L 0 466.894531 L 800 466.894531 L 800 0 L 0 0 Z M 419.464844 66.644531 C 432.105469 68.566406 442.398438 71.289062 453.332031 75.609375 C 506.453125 96.582031 543.519531 145.296875 550.1875 202.765625 C 551.308594 212.53125 550.988281 234.621094 549.601562 243.316406 C 547.464844 256.871094 544.160156 269.304688 539.625 280.9375 C 536.90625 287.765625 531.199219 299.503906 528.320312 304.09375 L 526.828125 306.390625 L 528.851562 312.363281 C 531.308594 319.835938 531.839844 326.453125 530.398438 331.894531 C 529.867188 333.816406 529.492188 335.949219 529.546875 336.695312 C 529.652344 337.445312 529.707031 339.953125 529.761719 342.300781 C 529.921875 348.277344 528.320312 351.316406 521.601562 358.09375 C 511.574219 368.230469 495.414062 376.824219 474.613281 383.121094 C 454.078125 389.308594 435.734375 391.496094 429.226562 388.617188 C 422.613281 385.628906 416.800781 377.464844 410.933594 362.84375 C 409.8125 360.066406 408.691406 357.558594 408.535156 357.347656 C 408.320312 357.132812 408 358.789062 407.785156 361.082031 C 406.667969 374.15625 401.972656 387.121094 395.519531 394.964844 C 392.535156 398.59375 386.988281 402.703125 384.375 403.234375 C 383.464844 403.449219 381.972656 404.625 380.425781 406.382812 C 376 411.558594 368.375 414.066406 359.199219 413.265625 C 340.90625 411.773438 313.546875 400.835938 290.933594 386.054688 C 284.746094 382 281.601562 379.011719 279.308594 375.0625 C 273.652344 365.296875 275.519531 349.875 284.480469 332.535156 L 286.878906 328 L 282.828125 323.410156 C 268 306.496094 257.226562 286.964844 250.507812 264.660156 C 243.464844 241.558594 242.292969 213.382812 247.253906 189 C 252.105469 165.199219 263.148438 141.507812 278.1875 122.726562 C 283.148438 116.535156 293.546875 105.917969 300 100.476562 C 321.8125 82.121094 351.359375 69.3125 379.199219 66.21875 C 381.972656 65.898438 385.121094 65.523438 386.132812 65.417969 C 391.253906 64.832031 412.851562 65.632812 419.464844 66.644531 Z M 419.464844 66.644531 "/>
<path style=" stroke:none;fill-rule:nonzero;fill:rgb(0%,0%,0%);fill-opacity:1;" d="M 385.066406 68.351562 C 319.148438 74.167969 264.960938 122.085938 250.453125 187.289062 C 247.785156 199.351562 247.253906 205.167969 247.253906 220.375 C 247.253906 235.582031 247.785156 241.34375 250.507812 253.457031 C 255.464844 275.921875 265.226562 296.730469 279.253906 314.605469 C 283.199219 319.675781 287.785156 324.957031 288.214844 324.957031 C 288.320312 324.957031 290.1875 322.128906 292.320312 318.660156 C 294.453125 315.246094 300.214844 306.546875 305.066406 299.34375 C 309.972656 292.140625 314.398438 285.523438 314.933594 284.566406 L 315.894531 282.910156 L 312.320312 277.359375 C 292.480469 247.054688 289.921875 208.421875 305.546875 175.285156 C 318.988281 146.953125 344.90625 126.246094 375.945312 119.203125 C 379.039062 118.511719 382.347656 117.925781 383.253906 117.925781 C 385.066406 117.925781 386.132812 117.125 386.132812 115.734375 C 386.132812 114.296875 388.640625 111.628906 390.667969 110.988281 C 393.386719 110.082031 396.160156 111.574219 397.601562 114.5625 C 398.613281 116.695312 398.773438 116.804688 400.960938 116.855469 C 412 116.910156 428.320312 120.804688 440.265625 126.195312 C 460.054688 135.105469 478.71875 153.246094 488.800781 173.417969 C 496.265625 188.304688 499.734375 203.191406 499.734375 220.375 C 499.734375 234.460938 497.386719 247 492.480469 258.953125 C 491.148438 262.261719 489.921875 265.300781 489.8125 265.78125 C 489.601562 266.371094 491.148438 267.542969 495.308594 269.945312 C 499.945312 272.664062 502.1875 274.425781 506.667969 279.015625 C 512.160156 284.511719 521.226562 295.984375 523.253906 299.984375 C 523.839844 301.105469 524.480469 302.011719 524.746094 302.011719 C 525.441406 302.011719 532.585938 288.78125 535.625 281.738281 C 541.066406 269.199219 545.121094 254.898438 547.039062 241.023438 C 548.375 231.738281 548.375 208.792969 547.039062 199.5625 C 543.945312 177.578125 536.320312 156.769531 524.691406 138.253906 C 514.347656 121.765625 497.761719 104.585938 482.132812 94.074219 C 461.652344 80.304688 440.535156 72.25 416.746094 69.101562 C 408.90625 68.085938 392.585938 67.660156 385.066406 68.351562 Z M 419.359375 77.316406 C 426.347656 78.4375 432.105469 79.453125 432.214844 79.558594 C 432.640625 79.984375 430.613281 89.910156 430.132812 89.910156 C 429.867188 89.855469 428.375 89.695312 426.828125 89.429688 L 424.054688 89.003906 L 424.375 86.601562 C 424.691406 84.308594 424.640625 84.199219 423.414062 84.414062 C 422.1875 84.574219 422.078125 84.949219 420.425781 95.246094 C 418.292969 108.480469 418.347656 107.785156 420.054688 107.785156 C 421.386719 107.785156 421.386719 107.890625 421.066406 110.027344 C 420.535156 113.601562 420.265625 114.1875 419.308594 114.1875 C 417.8125 114.136719 406.988281 112.269531 406.71875 112 C 406.558594 111.894531 406.773438 110.453125 407.09375 108.851562 C 407.679688 106.292969 407.894531 105.917969 409.066406 105.917969 C 410.347656 105.917969 410.398438 105.757812 412.105469 94.980469 C 413.066406 88.949219 413.8125 83.71875 413.867188 83.347656 C 413.867188 83.027344 413.28125 82.707031 412.585938 82.707031 C 411.519531 82.707031 411.308594 83.027344 410.988281 84.894531 C 410.71875 86.601562 410.453125 86.976562 409.707031 86.761719 C 409.226562 86.65625 407.785156 86.335938 406.558594 86.175781 C 404 85.75 404 85.910156 404.851562 80.414062 C 405.492188 75.929688 405.707031 75.238281 406.238281 75.238281 C 406.453125 75.238281 412.375 76.195312 419.359375 77.316406 Z M 372 81.640625 C 372.691406 83.828125 373.28125 85.960938 373.386719 86.386719 C 373.601562 87.136719 370.773438 88.46875 367.359375 89.324219 C 366.132812 89.589844 365.921875 89.429688 365.601562 88.042969 C 365.386719 87.1875 365.066406 86.335938 364.851562 86.175781 C 364.480469 85.960938 358.027344 87.882812 357.386719 88.363281 C 357.226562 88.523438 359.414062 95.566406 359.785156 95.992188 C 359.839844 96.046875 361.171875 95.726562 362.667969 95.246094 C 364.160156 94.765625 365.492188 94.445312 365.546875 94.5 C 365.921875 94.925781 367.574219 100.367188 367.414062 100.527344 C 367.308594 100.636719 365.921875 101.117188 364.375 101.648438 C 362.71875 102.183594 361.601562 102.824219 361.761719 103.195312 C 361.867188 103.515625 362.453125 105.171875 362.988281 106.933594 C 363.519531 108.640625 364.214844 110.132812 364.535156 110.238281 C 364.851562 110.398438 366.558594 110.027344 368.265625 109.492188 C 371.625 108.480469 371.839844 108.160156 370.988281 105.0625 C 370.613281 103.785156 370.773438 103.675781 373.972656 102.664062 C 375.839844 102.128906 377.546875 101.648438 377.8125 101.648438 C 378.453125 101.648438 381.441406 111.628906 380.960938 112.109375 C 380.535156 112.429688 356.480469 120.058594 355.734375 120.058594 C 355.519531 120.058594 355.09375 119.097656 354.71875 117.871094 C 354.347656 116.644531 353.921875 115.363281 353.761719 114.9375 C 353.601562 114.507812 354.027344 113.976562 354.933594 113.65625 C 355.734375 113.335938 356.265625 112.800781 356.105469 112.429688 C 356 112.109375 354.507812 107.359375 352.851562 101.917969 C 351.148438 96.472656 349.707031 91.722656 349.601562 91.40625 C 349.441406 90.976562 348.800781 90.816406 347.839844 91.03125 C 346.347656 91.351562 346.1875 91.246094 345.332031 88.578125 C 344.851562 87.082031 344.585938 85.695312 344.800781 85.480469 C 345.332031 84.949219 369.226562 77.425781 370.078125 77.53125 C 370.507812 77.585938 371.308594 79.292969 372 81.640625 Z M 453.921875 87.027344 C 459.308594 89.375 464.746094 91.777344 466.027344 92.3125 C 467.253906 92.898438 468.265625 93.539062 468.265625 93.804688 C 468.265625 94.339844 464.851562 102.34375 464.425781 102.714844 C 464.265625 102.875 462.558594 102.394531 460.585938 101.597656 C 458.078125 100.527344 457.121094 99.886719 457.332031 99.355469 C 458.398438 96.527344 458.292969 96.152344 455.839844 95.085938 C 451.09375 93.003906 451.359375 92.898438 449.601562 96.847656 C 448.691406 98.820312 448 100.527344 448 100.636719 C 448 100.742188 449.226562 101.328125 450.667969 101.96875 C 452.160156 102.609375 453.332031 103.304688 453.332031 103.515625 C 453.332031 103.785156 452.851562 105.0625 452.265625 106.453125 C 451.09375 109.171875 451.039062 109.171875 447.359375 107.570312 L 445.332031 106.71875 L 443.734375 110.238281 C 442.878906 112.214844 442.132812 114.027344 442.132812 114.242188 C 442.132812 114.722656 443.839844 115.683594 447.09375 117.015625 L 449.066406 117.871094 L 450.1875 115.734375 C 450.773438 114.507812 451.574219 113.707031 451.894531 113.816406 C 458.078125 116.429688 458.1875 116.484375 457.921875 117.65625 C 457.761719 118.296875 456.800781 120.644531 455.785156 122.886719 L 453.921875 126.941406 L 450.292969 125.394531 C 437.492188 119.953125 429.601562 116.324219 429.441406 115.894531 C 429.386719 115.628906 429.761719 114.296875 430.347656 112.960938 C 431.308594 110.667969 431.574219 110.507812 432.90625 110.773438 C 434.398438 111.09375 434.453125 111.039062 439.039062 100.476562 L 443.574219 89.910156 L 442.347656 89.214844 C 441.652344 88.84375 441.066406 88.308594 441.066406 88.042969 C 441.066406 87.242188 443.359375 82.707031 443.785156 82.707031 C 444 82.707031 448.535156 84.628906 453.921875 87.027344 Z M 337.011719 92.523438 C 337.761719 92.84375 339.519531 95.351562 341.386719 98.769531 L 344.535156 104.425781 L 343.734375 106.71875 C 342.667969 109.8125 342.347656 110.132812 338.078125 112.429688 C 336.054688 113.496094 334.398438 114.617188 334.398438 114.882812 C 334.398438 115.148438 335.253906 116.910156 336.320312 118.777344 C 337.8125 121.445312 338.453125 122.191406 339.148438 121.925781 C 339.625 121.710938 340.265625 121.445312 340.585938 121.339844 C 341.121094 121.070312 344.320312 126.300781 343.894531 126.726562 C 343.414062 127.207031 332.105469 133.398438 331.734375 133.398438 C 331.464844 133.398438 330.667969 132.277344 329.867188 130.890625 L 328.480469 128.328125 L 329.601562 127.421875 L 330.773438 126.460938 L 325.226562 116.484375 C 321.492188 109.761719 319.414062 106.503906 318.878906 106.664062 C 317.066406 107.144531 316.535156 106.824219 315.148438 104.476562 L 313.652344 101.917969 L 314.828125 101.167969 C 315.464844 100.742188 319.734375 98.339844 324.265625 95.832031 C 332.960938 90.976562 333.601562 90.816406 337.011719 92.523438 Z M 488.214844 108.371094 L 492.800781 112.160156 L 491.734375 113.601562 C 489.601562 116.429688 489.28125 116.75 488.320312 116.910156 C 487.039062 117.175781 477.601562 138.789062 478.507812 139.320312 C 479.148438 139.746094 475.894531 144.550781 474.988281 144.605469 C 474.558594 144.605469 470.507812 141.347656 467.253906 138.414062 C 466.667969 137.878906 466.828125 137.347656 468.535156 135.320312 C 469.972656 133.503906 470.71875 133.023438 471.199219 133.398438 C 471.894531 133.984375 472.535156 133.613281 472.535156 132.597656 C 472.535156 131.582031 468.425781 128.542969 467.519531 128.914062 C 466.878906 129.183594 466.828125 129.449219 467.308594 130.195312 C 467.785156 130.945312 467.574219 131.53125 466.078125 133.34375 C 465.066406 134.519531 464.105469 135.53125 463.894531 135.53125 C 463.679688 135.53125 457.28125 130.410156 455.519531 128.863281 C 455.464844 128.753906 456.265625 127.582031 457.386719 126.246094 C 458.71875 124.59375 459.574219 124.007812 460 124.328125 C 460.425781 124.648438 463.785156 122.566406 470.347656 117.871094 C 477.867188 112.480469 480 110.71875 479.734375 109.972656 C 479.464844 109.121094 482.398438 104.585938 483.253906 104.585938 C 483.464844 104.585938 485.652344 106.292969 488.214844 108.371094 Z M 315.519531 124.328125 L 326.132812 134.199219 L 326.292969 136.707031 L 326.453125 139.269531 L 320.480469 145.722656 C 317.171875 149.246094 314.132812 152.289062 313.707031 152.449219 C 313.28125 152.605469 312.160156 152.765625 311.199219 152.820312 C 309.546875 152.875 308.265625 151.859375 298.398438 142.789062 L 287.464844 132.703125 L 287.464844 130.089844 C 287.464844 127.527344 287.519531 127.421875 293.332031 121.125 C 302.238281 111.574219 301.761719 111.46875 315.519531 124.328125 Z M 512.214844 132.8125 C 514.132812 135.90625 515.734375 138.574219 515.734375 138.789062 C 515.734375 139.054688 512 143.054688 507.464844 147.699219 C 502.933594 152.394531 499.199219 156.34375 499.199219 156.503906 C 499.199219 156.664062 504.160156 154.902344 510.292969 152.554688 C 516.375 150.257812 521.546875 148.339844 521.761719 148.339844 C 522.1875 148.339844 529.601562 159.492188 529.601562 160.132812 C 529.601562 160.398438 528.480469 161.304688 527.148438 162.210938 C 524.851562 163.8125 524.691406 163.867188 523.734375 163.011719 C 522.828125 162.160156 522.292969 162.425781 513.492188 168.136719 C 502.71875 175.070312 503.039062 174.804688 503.894531 175.660156 C 504.851562 176.617188 504.746094 176.886719 501.867188 178.648438 L 499.253906 180.300781 L 495.734375 174.859375 L 492.214844 169.414062 L 493.652344 168.242188 C 494.453125 167.601562 495.679688 166.800781 496.425781 166.425781 C 497.492188 165.789062 497.761719 165.839844 498.1875 166.585938 C 498.613281 167.386719 499.359375 167.066406 503.785156 164.238281 C 506.558594 162.480469 508.746094 160.929688 508.640625 160.824219 C 508.535156 160.71875 504.535156 161.730469 499.679688 163.011719 C 494.878906 164.347656 490.613281 165.414062 490.292969 165.414062 C 489.921875 165.414062 489.011719 164.453125 488.265625 163.226562 L 486.878906 161.039062 L 489.011719 158.316406 C 490.1875 156.769531 492.960938 153.40625 495.148438 150.738281 C 497.332031 148.125 499.039062 145.882812 498.933594 145.777344 C 498.667969 145.511719 489.066406 152.019531 489.066406 152.5 C 489.066406 152.765625 489.332031 153.195312 489.707031 153.566406 C 490.027344 153.886719 490.238281 154.261719 490.078125 154.367188 C 489.972656 154.476562 488.746094 155.328125 487.359375 156.289062 L 484.851562 157.941406 L 481.28125 152.5 C 479.359375 149.511719 477.652344 146.738281 477.492188 146.417969 C 477.386719 146.097656 478.453125 145.082031 479.839844 144.175781 C 482.347656 142.523438 482.398438 142.46875 483.148438 143.535156 C 483.519531 144.125 484.054688 144.605469 484.320312 144.605469 C 484.90625 144.605469 503.464844 132.4375 503.464844 132.0625 C 503.464844 131.902344 503.148438 131.316406 502.828125 130.675781 C 502.238281 129.769531 502.292969 129.503906 502.933594 129.128906 C 503.359375 128.863281 504.585938 128.0625 505.601562 127.316406 C 507.839844 125.769531 507.519531 125.5 512.214844 132.8125 Z M 280.960938 141.242188 C 282.347656 142.042969 283.519531 142.734375 283.625 142.789062 C 283.734375 142.84375 283.519531 143.375 283.148438 144.015625 C 282.773438 144.605469 282.558594 145.191406 282.667969 145.296875 C 283.308594 145.882812 302.398438 155.808594 302.878906 155.808594 C 303.199219 155.808594 303.679688 155.328125 304 154.742188 C 304.585938 153.675781 304.640625 153.675781 307.199219 155.117188 C 308.691406 155.914062 309.867188 156.824219 309.867188 157.089844 C 309.867188 157.410156 304.265625 168.296875 303.679688 169.042969 C 303.625 169.148438 302.347656 168.613281 300.800781 167.816406 C 298.878906 166.855469 298.132812 166.160156 298.347656 165.628906 C 298.507812 165.199219 298.773438 164.558594 298.933594 164.1875 C 299.09375 163.757812 297.867188 162.746094 295.519531 161.519531 L 291.785156 159.492188 L 290.1875 162.320312 C 289.28125 163.867188 288.535156 165.414062 288.535156 165.679688 C 288.535156 166 290.132812 167.066406 292.105469 168.027344 L 295.679688 169.789062 L 296.585938 168.5625 L 297.492188 167.386719 L 300.054688 168.882812 C 301.492188 169.683594 302.71875 170.429688 302.828125 170.484375 C 302.933594 170.589844 296.691406 182.488281 296.265625 182.914062 C 296 183.234375 290.933594 179.925781 291.039062 179.5 C 291.09375 179.234375 291.253906 178.648438 291.464844 178.167969 C 291.734375 177.417969 289.761719 176.191406 281.546875 171.761719 C 275.894531 168.773438 271.199219 166.535156 271.09375 166.800781 C 270.347656 168.828125 269.972656 168.882812 266.933594 167.386719 L 264 165.945312 L 267.148438 159.972656 C 268.90625 156.664062 270.558594 153.886719 270.828125 153.78125 C 271.09375 153.726562 272.425781 154.261719 273.8125 155.0625 C 275.679688 156.074219 276.265625 156.714844 276 157.355469 C 275.785156 157.835938 275.625 158.421875 275.574219 158.691406 C 275.414062 159.277344 281.652344 162.746094 282.238281 162.425781 C 282.773438 162.105469 285.332031 157.144531 285.332031 156.449219 C 285.332031 155.914062 278.398438 152.5 278.398438 153.035156 C 278.398438 153.246094 278.027344 153.835938 277.652344 154.367188 C 276.960938 155.222656 276.800781 155.222656 274.347656 153.835938 C 272.90625 153.085938 271.625 152.339844 271.519531 152.289062 C 271.148438 151.96875 277.707031 139.800781 278.238281 139.800781 C 278.347656 139.800781 279.574219 140.441406 280.960938 141.242188 Z M 521.386719 189.585938 L 523.574219 191.078125 L 526.398438 189.957031 C 527.945312 189.371094 529.332031 188.945312 529.441406 189.105469 C 529.546875 189.210938 529.28125 190.652344 528.800781 192.308594 L 527.945312 195.292969 L 529.8125 197.589844 C 530.878906 198.871094 531.734375 200.097656 531.734375 200.3125 C 531.734375 200.46875 530.347656 200.628906 528.585938 200.628906 L 525.441406 200.628906 L 523.679688 203.296875 C 522.667969 204.738281 521.707031 205.964844 521.546875 205.964844 C 521.386719 205.964844 520.851562 204.632812 520.320312 203.03125 L 519.414062 200.097656 L 516.214844 199.191406 C 514.507812 198.710938 513.066406 198.175781 513.066406 198.015625 C 513.121094 197.855469 514.1875 196.894531 515.464844 195.933594 L 517.867188 194.175781 L 517.867188 190.707031 C 517.867188 188.039062 518.027344 187.34375 518.558594 187.664062 C 518.933594 187.878906 520.214844 188.785156 521.386719 189.585938 Z M 276.375 200.203125 L 276.535156 203.566406 L 279.039062 205.167969 C 280.425781 206.019531 281.601562 206.925781 281.601562 207.085938 C 281.601562 207.300781 280.320312 207.886719 278.828125 208.472656 C 276.054688 209.542969 276 209.59375 275.09375 212.691406 C 274.613281 214.398438 274.1875 215.945312 274.1875 216.050781 C 274.132812 216.160156 273.171875 215.039062 272.054688 213.597656 L 269.921875 210.980469 L 266.71875 211.195312 C 264.90625 211.300781 263.464844 211.25 263.464844 211.089844 C 263.464844 210.875 264.214844 209.59375 265.121094 208.261719 L 266.828125 205.859375 L 265.601562 202.925781 C 264.960938 201.324219 264.535156 199.9375 264.691406 199.777344 C 264.851562 199.617188 266.238281 199.882812 267.734375 200.3125 C 270.347656 201.109375 270.613281 201.109375 271.945312 200.152344 C 272.691406 199.617188 273.8125 198.65625 274.347656 198.015625 C 274.933594 197.375 275.574219 196.894531 275.785156 196.894531 C 276 196.894531 276.265625 198.390625 276.375 200.203125 Z M 523.253906 223.683594 L 525.601562 225.335938 L 528.640625 224.214844 C 532.105469 222.988281 532.214844 223.042969 530.878906 226.9375 L 530.027344 229.390625 L 531.945312 231.898438 C 533.011719 233.285156 533.8125 234.460938 533.707031 234.566406 C 533.652344 234.675781 532.320312 234.78125 530.71875 234.832031 C 527.679688 234.992188 527.148438 235.3125 525.332031 238.25 C 524.691406 239.261719 524 240.117188 523.785156 240.117188 C 523.574219 240.117188 522.988281 238.78125 522.453125 237.183594 C 521.867188 235.582031 521.066406 234.140625 520.585938 234.035156 C 520.105469 233.875 518.667969 233.5 517.332031 233.179688 L 514.933594 232.539062 L 516.375 231.3125 C 517.171875 230.617188 518.347656 229.710938 519.039062 229.230469 C 520.105469 228.484375 520.214844 228.003906 520.105469 225.175781 C 520 223.414062 520.160156 221.972656 520.425781 221.972656 C 520.691406 221.972656 521.972656 222.722656 523.253906 223.683594 Z M 276.800781 235.847656 L 276.800781 239.101562 L 279.464844 240.757812 C 280.960938 241.664062 282.132812 242.570312 282.132812 242.785156 C 282.132812 242.945312 280.90625 243.53125 279.464844 244.066406 C 276.535156 245.132812 275.945312 245.824219 275.414062 249.132812 C 275.199219 250.308594 274.878906 251.320312 274.613281 251.320312 C 274.398438 251.320312 273.332031 250.253906 272.214844 248.921875 L 270.238281 246.464844 L 267.148438 246.839844 C 265.386719 247.054688 264 247 264 246.785156 C 264 246.519531 264.746094 245.1875 265.601562 243.851562 L 267.253906 241.289062 L 266.132812 238.515625 C 265.546875 236.96875 265.121094 235.582031 265.28125 235.472656 C 265.386719 235.367188 266.773438 235.582031 268.375 236.007812 L 271.253906 236.753906 L 273.652344 234.726562 C 274.933594 233.605469 276.160156 232.644531 276.425781 232.644531 C 276.640625 232.644531 276.800781 234.085938 276.800781 235.847656 Z M 515.625 257.992188 L 518.238281 259.804688 L 521.066406 258.738281 C 522.613281 258.152344 524 257.832031 524.160156 257.992188 C 524.320312 258.152344 524.054688 259.59375 523.519531 261.195312 L 522.613281 264.128906 L 524.480469 266.371094 C 525.546875 267.597656 526.398438 268.769531 526.398438 269.039062 C 526.398438 269.25 524.960938 269.464844 523.253906 269.464844 L 520.105469 269.464844 L 518.398438 272.132812 C 517.441406 273.574219 516.535156 274.800781 516.320312 274.800781 C 516.160156 274.800781 515.519531 273.414062 514.933594 271.707031 L 513.867188 268.664062 L 510.828125 267.863281 C 509.121094 267.4375 507.734375 266.957031 507.785156 266.796875 C 507.785156 266.636719 508.960938 265.675781 510.347656 264.609375 L 512.851562 262.632812 L 512.640625 259.378906 C 512.535156 257.617188 512.535156 256.125 512.746094 256.125 C 512.90625 256.125 514.238281 256.976562 515.625 257.992188 Z M 288.480469 270.691406 C 288.535156 272.503906 288.800781 272.824219 291.253906 274.320312 C 292.746094 275.28125 293.761719 276.1875 293.492188 276.402344 C 293.28125 276.613281 291.945312 277.203125 290.558594 277.734375 C 288.265625 278.589844 287.945312 278.910156 287.464844 280.882812 C 286.292969 285.363281 286.292969 285.363281 284 282.539062 L 281.921875 280.027344 L 278.507812 280.347656 C 274.773438 280.722656 274.828125 280.9375 277.441406 277.09375 L 278.933594 274.851562 L 277.652344 271.917969 C 276.960938 270.316406 276.480469 268.929688 276.585938 268.769531 C 276.691406 268.664062 278.238281 268.929688 279.945312 269.410156 L 283.09375 270.210938 L 285.386719 268.128906 L 287.679688 266.050781 L 288.054688 267.382812 C 288.265625 268.078125 288.425781 269.570312 288.480469 270.691406 Z M 288.480469 270.691406 "/>
<path style=" stroke:none;fill-rule:nonzero;fill:rgb(0%,0%,0%);fill-opacity:1;" d="M 328.691406 100.902344 L 326.933594 102.023438 L 328.214844 104.476562 C 330.507812 108.960938 330.613281 109.011719 333.171875 107.464844 L 335.359375 106.132812 L 333.652344 103.089844 C 332.746094 101.4375 331.625 99.996094 331.199219 99.941406 C 330.773438 99.835938 329.601562 100.261719 328.691406 100.902344 Z M 328.691406 100.902344 "/>
<path style=" stroke:none;fill-rule:nonzero;fill:rgb(0%,0%,0%);fill-opacity:1;" d="M 474.933594 123.578125 C 474.347656 124.007812 473.492188 124.648438 473.066406 124.914062 C 472.375 125.339844 472.425781 125.5 473.28125 126.195312 C 474.71875 127.316406 474.878906 127.261719 475.894531 125.128906 C 477.171875 122.40625 476.960938 122.03125 474.933594 123.578125 Z M 474.933594 123.578125 "/>
<path style=" stroke:none;fill-rule:nonzero;fill:rgb(0%,0%,0%);fill-opacity:1;" d="M 298.238281 125.554688 C 296.691406 127.101562 295.464844 128.488281 295.464844 128.648438 C 295.464844 128.808594 299.359375 132.542969 304.054688 136.867188 L 312.691406 144.816406 L 315.519531 141.667969 C 317.121094 139.90625 318.292969 138.359375 318.238281 138.199219 C 318.027344 137.667969 301.761719 122.726562 301.386719 122.726562 C 301.171875 122.726562 299.785156 124.007812 298.238281 125.554688 Z M 298.238281 125.554688 "/>
<path style=" stroke:none;fill-rule:nonzero;fill:rgb(0%,0%,0%);fill-opacity:1;" d="M 390.238281 114.9375 C 389.8125 115.363281 389.066406 117.816406 388.585938 120.433594 C 387.464844 125.875 382.878906 144.445312 379.679688 156.074219 C 376.160156 169.042969 373.546875 180.78125 368.480469 206.234375 C 365.867188 219.414062 363.625 230.777344 363.464844 231.417969 C 363.148438 232.859375 364.800781 234.78125 366.347656 234.78125 C 367.894531 234.78125 368.851562 233.5 369.28125 230.9375 C 369.707031 228.378906 378.558594 187.449219 378.988281 186.277344 C 379.09375 185.851562 379.359375 185.636719 379.464844 185.796875 C 379.785156 186.117188 378.71875 195.1875 375.464844 218.984375 C 372.800781 238.355469 372.746094 239.261719 373.652344 239.957031 C 375.894531 241.609375 378.667969 239.796875 378.667969 236.648438 C 378.667969 234.886719 380.585938 221.867188 383.945312 200.628906 C 386.933594 181.742188 390.292969 156.875 391.785156 142.308594 C 391.945312 140.28125 392.320312 138.839844 392.535156 139.109375 C 393.226562 139.90625 399.414062 178.859375 402.398438 201.324219 C 404 213.597656 405.332031 223.894531 405.332031 224.109375 C 405.332031 225.070312 407.09375 226.242188 408.535156 226.242188 C 410.347656 226.242188 411.199219 225.015625 410.878906 223.042969 C 410.773438 222.292969 410.027344 217.597656 409.28125 212.636719 C 408.535156 207.621094 406.132812 193 403.945312 180.140625 C 400.480469 159.757812 399.679688 153.996094 400.800781 156.929688 C 403.308594 163.757812 409.011719 186.011719 413.601562 206.339844 C 415.519531 214.878906 417.226562 222.242188 417.386719 222.722656 C 417.8125 223.894531 419.894531 224.320312 421.28125 223.574219 C 422.027344 223.203125 422.398438 222.507812 422.398438 221.441406 C 422.398438 218.507812 417.867188 201.910156 411.148438 180.460938 C 406.988281 167.015625 402.988281 151.753906 399.199219 135 C 395.039062 116.695312 394.71875 115.574219 393.8125 114.882812 C 392.585938 113.976562 391.199219 114.027344 390.238281 114.9375 Z M 390.238281 114.9375 "/>
<path style=" stroke:none;fill-rule:nonzero;fill:rgb(0%,0%,0%);fill-opacity:1;" d="M 399.464844 120.324219 C 399.519531 121.605469 400.480469 122.085938 404 122.460938 C 410.878906 123.101562 415.679688 123.847656 421.066406 125.234375 C 454.078125 133.453125 480.425781 158.796875 490.347656 191.773438 C 493.546875 202.285156 494.132812 206.925781 494.132812 220.640625 C 494.132812 231.367188 493.972656 233.660156 492.90625 239.050781 C 491.625 245.398438 488.160156 256.390625 486.347656 259.914062 C 485.492188 261.621094 485.441406 262.152344 485.972656 263.0625 C 486.347656 263.648438 486.828125 264.128906 486.988281 264.128906 C 487.734375 264.128906 492 252.65625 493.867188 245.664062 C 498.613281 227.523438 497.921875 206.714844 491.945312 188.625 C 479.308594 150.207031 444.585938 122.886719 405.121094 120.164062 C 401.386719 119.898438 399.464844 119.953125 399.464844 120.324219 Z M 399.464844 120.324219 "/>
<path style=" stroke:none;fill-rule:nonzero;fill:rgb(0%,0%,0%);fill-opacity:1;" d="M 381.867188 120.964844 C 377.8125 121.605469 366.71875 124.648438 362.558594 126.246094 C 348.851562 131.476562 336.214844 139.960938 325.921875 150.792969 C 296.90625 181.421875 289.972656 226.832031 308.535156 264.929688 C 311.359375 270.691406 317.171875 280.136719 317.921875 280.136719 C 318.132812 280.136719 318.398438 279.601562 318.558594 278.960938 C 318.828125 278.109375 318.132812 276.613281 316.320312 273.734375 C 308.375 261.355469 303.199219 246.734375 301.28125 231.367188 C 300.320312 223.308594 300.960938 208.902344 302.613281 200.84375 C 310.773438 161.785156 339.734375 132.492188 378.132812 124.328125 C 383.519531 123.152344 384.535156 122.671875 384.535156 121.230469 C 384.535156 120.59375 384.320312 120.539062 381.867188 120.964844 Z M 381.867188 120.964844 "/>
<path style=" stroke:none;fill-rule:nonzero;fill:rgb(0%,0%,0%);fill-opacity:1;" d="M 441.226562 215.144531 C 437.171875 217.226562 423.09375 224.589844 409.867188 231.417969 C 396.691406 238.25 385.972656 244.011719 386.132812 244.226562 C 386.292969 244.4375 387.148438 244.652344 388.105469 244.597656 C 389.28125 244.546875 389.707031 244.757812 389.492188 245.238281 C 388.691406 247.425781 394.132812 244.917969 420.960938 231.046875 C 447.039062 217.546875 451.734375 214.824219 451.734375 213.4375 C 451.734375 212.691406 450.132812 211.300781 449.332031 211.300781 C 448.90625 211.300781 445.28125 213.011719 441.226562 215.144531 Z M 441.226562 215.144531 "/>
<path style=" stroke:none;fill-rule:nonzero;fill:rgb(0%,0%,0%);fill-opacity:1;" d="M 437.332031 223.46875 C 430.71875 226.882812 419.894531 232.539062 413.332031 235.953125 C 406.71875 239.371094 399.464844 243.105469 397.171875 244.226562 C 394.933594 245.347656 393.121094 246.464844 393.226562 246.785156 C 393.332031 247.054688 395.199219 247.800781 397.386719 248.441406 C 399.574219 249.027344 401.867188 249.828125 402.507812 250.148438 C 403.148438 250.523438 404.214844 250.789062 404.851562 250.789062 C 405.8125 250.789062 405.921875 250.574219 405.601562 249.292969 C 405.441406 248.492188 405.121094 247.054688 404.960938 246.144531 C 404.425781 242.945312 405.441406 242.304688 434.398438 227.578125 C 442.933594 223.253906 450.1875 219.464844 450.558594 219.199219 C 451.519531 218.398438 451.359375 217.171875 450.292969 217.171875 C 449.761719 217.226562 443.945312 220.054688 437.332031 223.46875 Z M 437.332031 223.46875 "/>
<path style=" stroke:none;fill-rule:nonzero;fill:rgb(0%,0%,0%);fill-opacity:1;" d="M 449.761719 222.828125 C 447.148438 224.214844 437.28125 229.390625 427.734375 234.355469 C 418.1875 239.316406 410.078125 243.796875 409.707031 244.277344 C 408.800781 245.453125 409.171875 249.242188 410.347656 251.054688 C 410.828125 251.800781 412 252.710938 412.960938 253.136719 C 416.054688 254.46875 418.132812 257.617188 418.132812 261.035156 C 418.132812 262.527344 418.238281 262.632812 419.625 262.367188 C 420.480469 262.207031 431.148438 256.871094 443.414062 250.46875 C 461.972656 240.863281 465.921875 238.996094 467.253906 239.261719 C 468.105469 239.421875 468.800781 239.421875 468.800781 239.261719 C 468.800781 239.15625 467.734375 237.183594 466.453125 234.886719 C 465.171875 232.644531 463.414062 229.230469 462.558594 227.308594 C 461.707031 225.390625 460.320312 223.042969 459.519531 222.082031 C 457.441406 219.625 455.519531 219.785156 449.761719 222.828125 Z M 449.761719 222.828125 "/>
<path style=" stroke:none;fill-rule:nonzero;fill:rgb(0%,0%,0%);fill-opacity:1;" d="M 333.121094 235.101562 C 330.933594 237.289062 332.480469 238.410156 341.601562 241.128906 C 345.707031 242.359375 361.171875 247.214844 376 251.855469 C 410.933594 262.847656 412.640625 263.328125 413.601562 262.527344 C 414.558594 261.726562 414.667969 259.644531 413.761719 258.898438 C 413.386719 258.632812 411.253906 257.832031 409.066406 257.191406 C 403.09375 255.429688 364.320312 243.316406 351.625 239.261719 C 340.054688 235.582031 335.625 234.246094 334.558594 234.246094 C 334.238281 234.246094 333.546875 234.621094 333.121094 235.101562 Z M 333.121094 235.101562 "/>
<path style=" stroke:none;fill-rule:nonzero;fill:rgb(0%,0%,0%);fill-opacity:1;" d="M 331.414062 246.359375 C 330.347656 249.828125 328.585938 255.539062 327.519531 259.058594 C 324.105469 269.835938 322.453125 275.867188 322.773438 276.1875 C 322.988281 276.347656 326.71875 276.5625 331.199219 276.722656 C 339.09375 276.933594 347.464844 277.949219 352.800781 279.335938 C 362.132812 281.789062 367.785156 283.445312 368.214844 283.925781 C 368.535156 284.191406 369.121094 284.40625 369.601562 284.40625 C 371.894531 284.40625 388.214844 292.835938 395.574219 297.796875 C 397.707031 299.238281 399.519531 300.414062 399.679688 300.414062 C 400 300.414062 402.132812 293.957031 402.132812 292.835938 C 402.132812 292.140625 400.640625 291.449219 395.09375 289.742188 C 391.199219 288.566406 387.039062 287.234375 385.867188 286.859375 C 383.734375 286.113281 374.398438 283.175781 361.121094 279.070312 C 350.398438 275.761719 350.078125 275.121094 353.386719 264.609375 C 357.226562 252.335938 357.011719 252.816406 358.828125 251.855469 C 361.171875 250.574219 362.878906 250.949219 380.105469 256.445312 C 405.441406 264.554688 410.1875 265.890625 410.828125 265.25 C 411.894531 264.179688 410.1875 263.222656 403.734375 261.300781 C 381.8125 254.578125 360.535156 248.015625 348.90625 244.386719 C 341.492188 242.039062 334.988281 240.117188 334.398438 240.117188 C 333.546875 240.117188 333.066406 241.183594 331.414062 246.359375 Z M 331.414062 246.359375 "/>
<path style=" stroke:none;fill-rule:nonzero;fill:rgb(0%,0%,0%);fill-opacity:1;" d="M 466.132812 242.570312 C 466.132812 243.53125 468.375 247.585938 468.90625 247.585938 C 469.441406 247.585938 470.933594 244.652344 470.933594 243.636719 C 470.933594 242.625 469.332031 241.71875 467.519531 241.71875 C 466.613281 241.71875 466.132812 242.039062 466.132812 242.570312 Z M 466.132812 242.570312 "/>
<path style=" stroke:none;fill-rule:nonzero;fill:rgb(0%,0%,0%);fill-opacity:1;" d="M 441.066406 254.789062 C 428.425781 261.355469 418.292969 266.261719 417.492188 266.261719 C 415.625 266.261719 415.199219 267.0625 416.214844 268.664062 C 417.226562 270.15625 417.972656 270.316406 419.148438 269.25 C 419.625 268.824219 422.667969 267.117188 425.867188 265.410156 C 438.828125 258.472656 447.148438 255.269531 458.933594 252.710938 C 462.453125 251.910156 465.867188 251.160156 466.558594 251.054688 C 467.199219 250.894531 467.734375 250.46875 467.734375 250.09375 C 467.734375 248.921875 464.480469 243.316406 463.839844 243.371094 C 463.464844 243.371094 453.226562 248.546875 441.066406 254.789062 Z M 441.066406 254.789062 "/>
<path style=" stroke:none;fill-rule:nonzero;fill:rgb(0%,0%,0%);fill-opacity:1;" d="M 460.800781 253.402344 C 451.519531 255.378906 440.585938 259.273438 430.828125 264.128906 C 422.078125 268.503906 415.519531 273.199219 418.132812 273.199219 C 418.453125 273.199219 418.292969 273.785156 417.8125 274.535156 C 417.332031 275.28125 417.066406 276.027344 417.171875 276.1875 C 417.332031 276.292969 420.425781 274.585938 424.054688 272.292969 C 435.894531 264.929688 448.375 260.019531 462.347656 257.191406 C 466.558594 256.335938 470.078125 255.539062 470.238281 255.429688 C 470.347656 255.269531 470.132812 254.578125 469.8125 253.777344 C 469.011719 252.070312 467.464844 252.015625 460.800781 253.402344 Z M 460.800781 253.402344 "/>
<path style=" stroke:none;fill-rule:nonzero;fill:rgb(0%,0%,0%);fill-opacity:1;" d="M 360.746094 255.269531 C 359.308594 256.335938 358.238281 258.953125 356.480469 265.890625 C 354.828125 272.503906 354.988281 273.625 358.238281 275.28125 C 359.359375 275.8125 362.453125 276.882812 365.066406 277.628906 C 367.734375 278.375 378.027344 281.46875 388 284.617188 C 401.546875 288.832031 406.347656 290.542969 407.09375 291.394531 C 407.625 292.035156 408.105469 292.460938 408.214844 292.355469 C 408.585938 291.875 414.398438 273.839844 414.398438 273.039062 C 414.398438 270.316406 411.625 269.199219 386.398438 261.460938 C 381.441406 259.964844 374.828125 257.886719 371.734375 256.871094 C 364.535156 254.578125 362.1875 254.203125 360.746094 255.269531 Z M 360.746094 255.269531 "/>
<path style=" stroke:none;fill-rule:nonzero;fill:rgb(0%,0%,0%);fill-opacity:1;" d="M 466.933594 257.566406 C 463.148438 258.097656 453.707031 260.660156 448.480469 262.582031 C 445.332031 263.703125 442.613281 264.660156 442.347656 264.660156 C 440.160156 264.714844 440.535156 265.78125 446.347656 276.722656 C 452.535156 288.460938 453.601562 291.394531 452.800781 294.703125 C 451.359375 301.105469 443.625 304.628906 437.921875 301.425781 C 435.09375 299.824219 433.8125 297.90625 427.679688 286.058594 C 424.585938 280.027344 422.238281 276.082031 421.707031 275.972656 C 421.226562 275.867188 419.734375 276.667969 418.453125 277.679688 C 416.214844 279.550781 416.054688 279.871094 413.601562 288.03125 C 409.972656 300.039062 409.121094 301.746094 406.292969 303.027344 C 405.011719 303.613281 403.574219 304.199219 403.09375 304.359375 C 402.558594 304.519531 402.132812 305.160156 402.132812 305.855469 C 402.132812 307.027344 403.679688 315.300781 405.921875 325.757812 C 406.453125 328.371094 407.199219 332.109375 407.519531 334.027344 C 408.265625 338.671875 409.121094 339.898438 411.519531 339.898438 C 412.640625 339.898438 413.28125 340.113281 413.066406 340.433594 C 412.90625 340.699219 412.214844 340.964844 411.574219 340.964844 C 410.933594 340.964844 410.027344 341.230469 409.601562 341.5 C 408.90625 341.980469 408.960938 342.140625 409.867188 342.886719 C 410.453125 343.3125 412.265625 344.113281 413.867188 344.59375 L 416.800781 345.5 L 413.492188 345.660156 L 410.132812 345.820312 L 410.132812 347.742188 C 410.132812 352.703125 415.359375 367.058594 419.414062 373.085938 C 422.1875 377.304688 427.359375 381.945312 431.253906 383.707031 C 436.585938 386.105469 440.480469 386.585938 447.574219 385.574219 C 461.8125 383.492188 483.839844 376.449219 497.707031 369.511719 C 511.253906 362.734375 523.625 352.703125 525.546875 346.996094 C 526.613281 343.898438 526.613281 339.898438 525.652344 337.496094 L 524.851562 335.628906 L 521.011719 335.628906 C 518.132812 335.628906 516.535156 335.308594 514.773438 334.507812 C 512.425781 333.335938 511.945312 332.75 507.625 326.078125 C 503.519531 319.730469 494.828125 313.433594 486.132812 310.496094 C 482.933594 309.375 481.441406 309.214844 475.199219 309.269531 C 468.800781 309.269531 467.519531 309.429688 463.464844 310.765625 C 449.226562 315.511719 438.933594 324.425781 435.148438 335.46875 C 434.558594 337.125 433.8125 341.339844 433.492188 344.753906 C 432.746094 351.957031 433.28125 356.601562 435.464844 363.164062 C 436.960938 367.539062 437.171875 369.460938 436.160156 369.140625 C 434.773438 368.660156 433.601562 365.617188 432.214844 358.839844 C 431.039062 352.917969 430.878906 351.050781 431.148438 346.300781 C 431.945312 331.039062 440.851562 318.660156 456.214844 311.40625 C 463.308594 308.042969 467.734375 307.082031 475.734375 307.136719 C 481.761719 307.136719 482.828125 307.296875 486.933594 308.789062 C 492.375 310.765625 497.332031 313.484375 501.441406 316.742188 C 504.691406 319.355469 506.347656 319.515625 504.746094 317.0625 C 504.214844 316.261719 502.613281 313.433594 501.171875 310.816406 C 499.679688 308.148438 497.867188 305.160156 497.066406 304.148438 C 495.09375 301.585938 494.773438 300.945312 495.414062 300.945312 C 496.746094 300.945312 500.160156 304.894531 502.292969 308.898438 C 504.800781 313.59375 505.332031 313.859375 508.214844 312.097656 C 510.773438 310.550781 510.828125 311.191406 508.214844 313.433594 L 505.972656 315.300781 L 507.039062 318.128906 C 508.375 321.648438 509.386719 322.34375 511.464844 321.117188 C 512.375 320.636719 512.90625 320.476562 512.746094 320.847656 C 512.640625 321.222656 511.785156 321.917969 510.933594 322.394531 L 509.386719 323.304688 L 510.1875 325.703125 C 512.105469 331.253906 515.148438 333.761719 520 333.761719 C 523.945312 333.761719 526.238281 332.375 527.519531 329.226562 C 528.585938 326.503906 528.800781 321.277344 528 316.902344 C 526.667969 309.804688 516.054688 292.835938 507.253906 283.710938 C 499.519531 275.707031 493.921875 272.078125 486.027344 269.945312 C 483.734375 269.304688 481.226562 268.449219 480.425781 268.078125 C 478.828125 267.277344 476.265625 264.179688 473.652344 259.964844 C 471.785156 257.03125 471.574219 256.925781 466.933594 257.566406 Z M 505.546875 346.675781 C 500.960938 354.839844 491.679688 362.789062 482.933594 366.042969 C 478.988281 367.484375 471.359375 368.019531 467.199219 367.164062 C 465.601562 366.792969 462.238281 366.3125 459.734375 366.042969 C 453.761719 365.457031 450.558594 364.390625 446.507812 361.722656 C 443.308594 359.640625 441.226562 356.972656 441.867188 355.90625 C 442.878906 354.25 448.214844 356.171875 457.011719 361.457031 C 463.039062 365.03125 463.894531 365.082031 472.691406 363.054688 C 486.878906 359.800781 493.761719 356.652344 501.066406 349.984375 C 502.667969 348.488281 504.746094 346.089844 505.707031 344.648438 C 508.265625 340.644531 508.160156 341.980469 505.546875 346.675781 Z M 505.546875 346.675781 "/>
<path style=" stroke:none;fill-rule:nonzero;fill:rgb(0%,0%,0%);fill-opacity:1;" d="M 436.691406 267.222656 C 435.574219 267.757812 434.667969 268.289062 434.667969 268.503906 C 434.667969 268.71875 437.332031 274.054688 440.535156 280.296875 C 443.785156 286.59375 446.398438 292.300781 446.398438 293.050781 C 446.398438 294.808594 444.851562 296.144531 442.773438 296.144531 C 440.535156 296.144531 439.574219 294.757812 433.707031 283.070312 C 431.039062 277.789062 428.640625 273.144531 428.375 272.71875 C 427.945312 272.132812 427.464844 272.238281 425.652344 273.253906 C 424.425781 273.894531 423.519531 274.585938 423.574219 274.746094 C 432.746094 292.941406 435.679688 298.011719 437.761719 299.613281 C 439.839844 301.160156 445.226562 301.105469 447.308594 299.558594 C 449.8125 297.691406 451.199219 295.183594 451.199219 292.460938 C 451.253906 290.382812 450.398438 288.300781 445.226562 278.160156 C 441.921875 271.597656 439.09375 266.316406 438.933594 266.316406 C 438.773438 266.371094 437.761719 266.742188 436.691406 267.222656 Z M 436.691406 267.222656 "/>
<path style=" stroke:none;fill-rule:nonzero;fill:rgb(0%,0%,0%);fill-opacity:1;" d="M 321.28125 279.335938 C 321.011719 280.296875 321.171875 280.9375 321.652344 281.257812 C 322.078125 281.523438 325.652344 281.738281 329.601562 281.738281 C 350.613281 281.789062 373.226562 288.941406 392.375 301.640625 C 395.359375 303.613281 397.921875 305.214844 398.027344 305.214844 C 398.1875 305.214844 398.558594 304.46875 398.878906 303.613281 C 399.414062 302.011719 399.359375 301.960938 395.574219 299.292969 C 389.8125 295.238281 385.011719 292.570312 377.066406 288.941406 C 361.386719 281.789062 348.214844 278.640625 331.359375 278.160156 L 321.652344 277.839844 Z M 321.28125 279.335938 "/>
<path style=" stroke:none;fill-rule:nonzero;fill:rgb(0%,0%,0%);fill-opacity:1;" d="M 318.1875 285.792969 C 317.066406 287.554688 313.601562 292.355469 310.558594 296.570312 C 290.71875 323.835938 281.921875 340.59375 279.734375 355.105469 C 278.828125 361.347656 278.988281 364.230469 280.585938 368.550781 C 282.773438 374.6875 285.601562 377.785156 294.132812 383.652344 C 299.785156 387.496094 302.71875 389.203125 313.601562 394.804688 C 332.691406 404.570312 350.1875 409.800781 363.894531 409.800781 C 369.921875 409.800781 373.921875 408.570312 377.011719 405.742188 C 379.519531 403.503906 380.640625 400.40625 379.359375 399.019531 C 377.867188 397.367188 376.585938 397.3125 375.359375 398.859375 C 374.078125 400.515625 373.386719 400.246094 374.613281 398.488281 C 375.09375 397.847656 375.464844 396.9375 375.464844 396.460938 C 375.464844 395.019531 373.601562 391.125 372.90625 391.125 C 372.425781 391.125 372.375 390.855469 372.691406 390.164062 C 373.011719 389.683594 373.386719 388.242188 373.601562 387.015625 L 373.972656 384.773438 L 371.894531 384.453125 C 368.90625 383.972656 367.148438 383.011719 369.867188 383.332031 C 373.226562 383.757812 374.347656 383.226562 375.679688 380.503906 C 376.375 379.171875 377.121094 377.304688 377.28125 376.394531 C 377.601562 374.957031 377.492188 374.6875 376.480469 374.421875 C 375.839844 374.261719 374.558594 374.261719 373.652344 374.421875 C 372.320312 374.636719 372.105469 374.582031 372.640625 374.046875 C 372.960938 373.675781 374.453125 373.246094 375.945312 373.085938 L 378.613281 372.875 L 380.320312 367.804688 C 381.441406 364.390625 381.921875 362.148438 381.707031 360.976562 C 381.492188 359.695312 381.652344 359.109375 382.1875 358.894531 C 382.71875 358.679688 382.933594 357.988281 382.828125 356.867188 C 382.71875 355.585938 382.878906 355.105469 383.625 354.945312 C 384.320312 354.785156 384.535156 355.105469 384.535156 356.386719 C 384.535156 357.238281 384.746094 358.09375 384.960938 358.253906 C 385.226562 358.414062 384.640625 360.976562 383.625 364.015625 C 382.667969 367.058594 381.867188 369.671875 381.867188 369.886719 C 381.867188 370.101562 382.453125 370.578125 383.199219 371.007812 L 384.585938 371.699219 L 382.933594 372.875 C 381.011719 374.316406 378.507812 378.15625 378.988281 378.902344 C 379.148438 379.222656 380.054688 379.863281 381.011719 380.292969 L 382.667969 381.039062 L 380.214844 380.769531 L 377.707031 380.503906 L 376.640625 383.28125 C 374.988281 387.496094 374.828125 388.402344 375.199219 390.375 C 375.894531 394.109375 381.707031 398.859375 384.535156 398.058594 C 388.640625 396.9375 393.8125 392.617188 395.894531 388.5625 C 398.988281 382.585938 402.398438 369.726562 403.734375 358.949219 C 404.585938 352.382812 404.160156 339.792969 402.988281 335.363281 C 402.507812 333.601562 400.691406 329.28125 398.933594 325.703125 C 397.171875 322.183594 395.734375 318.714844 395.734375 318.019531 C 395.734375 317.328125 396.265625 314.605469 396.90625 311.9375 L 398.078125 307.1875 L 396.160156 305.535156 C 392.90625 302.761719 382.027344 296.464844 373.546875 292.460938 C 369.066406 290.382812 365.121094 288.671875 364.746094 288.671875 C 364.320312 288.671875 362.078125 288.03125 359.734375 287.285156 C 351.359375 284.617188 342.507812 283.285156 330.933594 282.964844 L 320.265625 282.644531 Z M 322.453125 297.796875 C 321.492188 299.984375 317.601562 307.9375 313.921875 315.511719 C 310.238281 323.089844 307.199219 329.386719 307.199219 329.492188 C 307.199219 329.601562 306.398438 331.414062 305.386719 333.601562 C 302.453125 339.898438 301.28125 344.433594 300.960938 350.355469 C 300.480469 359 302.507812 366.898438 306.988281 373.941406 C 309.492188 377.835938 314.878906 383.011719 318.988281 385.359375 C 322.878906 387.707031 322.773438 387.761719 317.226562 386.320312 C 308.851562 384.238281 302.027344 379.597656 298.878906 373.941406 C 297.441406 371.273438 297.332031 370.6875 297.171875 363.910156 C 296.960938 355.90625 296.800781 355.53125 293.226562 353.71875 C 291.253906 352.703125 291.199219 352.597656 291.199219 349.875 C 291.199219 345.128906 294.078125 339.578125 307.09375 319.089844 C 315.308594 306.121094 323.839844 293.367188 324.054688 293.636719 C 324.214844 293.742188 323.464844 295.664062 322.453125 297.796875 Z M 322.453125 297.796875 "/>
<path style=" stroke:none;fill-rule:nonzero;fill:rgb(0%,0%,0%);fill-opacity:1;" d="M 403.308594 295.023438 C 402.453125 297.851562 402.507812 298.8125 403.625 298.8125 C 406.398438 298.8125 407.894531 295.609375 405.972656 293.847656 C 404.480469 292.515625 403.945312 292.730469 403.308594 295.023438 Z M 403.308594 295.023438 "/>
</g>
</svg>
