<?xml version="1.0" encoding="UTF-8"?>
<svg xmlns="http://www.w3.org/2000/svg" xmlns:xlink="http://www.w3.org/1999/xlink" width="400px" height="450px" viewBox="0 0 400 450" version="1.1">
<g id="surface1">
<path style=" stroke:none;fill-rule:nonzero;fill:rgb(0%,0%,0%);fill-opacity:1;" d="M 170.957031 5.390625 C 83.699219 19.730469 17.402344 88.96875 7.230469 176.46875 C 5.390625 193.136719 6.496094 222.304688 9.679688 237.988281 C 16.421875 270.832031 33.210938 305.148438 54.042969 328.429688 C 58.578125 333.578125 59.070312 333.824219 60.417969 331.617188 C 61.273438 330.269531 68.628906 319.238281 76.714844 306.984375 C 84.925781 294.730469 92.28125 283.457031 93.015625 282.109375 C 94.238281 279.902344 93.503906 278.308594 88.847656 270.957031 C 82.109375 260.539062 76.714844 248.160156 72.671875 234.070312 C 68.871094 220.957031 67.402344 192.648438 69.851562 177.941406 C 76.839844 134.191406 104.78125 97.179688 145.34375 78.308594 C 154.902344 73.773438 176.101562 67.402344 181.496094 67.402344 C 182.71875 67.402344 184.4375 65.929688 185.292969 64.09375 C 188.601562 57.230469 196.078125 56.496094 199.511719 62.5 C 201.347656 65.5625 202.328125 65.929688 210.90625 66.667969 C 255.636719 70.34375 297.179688 98.652344 317.15625 139.09375 C 327.082031 159.3125 331.128906 176.46875 331.25 199.140625 C 331.25 216.789062 328.675781 231.496094 322.671875 247.304688 C 320.34375 253.675781 318.628906 258.945312 318.871094 259.070312 C 319.117188 259.3125 322.671875 261.398438 326.839844 263.96875 C 335.539062 269.117188 348.652344 282.71875 357.351562 295.34375 L 363.234375 304.042969 L 365.320312 301.226562 C 366.542969 299.632812 369.730469 293.871094 372.550781 288.234375 C 387.132812 258.578125 393.382812 231.863281 393.382812 198.773438 C 393.382812 106.128906 329.289062 26.714844 238.96875 7.351562 C 222.917969 3.921875 186.519531 2.820312 170.957031 5.390625 Z M 227.941406 15.320312 C 246.570312 18.261719 244.976562 17.402344 243.628906 24.753906 C 243.015625 28.308594 242.28125 31.496094 242.035156 31.617188 C 241.789062 31.863281 239.949219 31.738281 237.867188 31.25 C 234.925781 30.636719 234.070312 29.78125 234.070312 27.449219 C 234.070312 25.859375 233.578125 24.511719 232.84375 24.511719 C 232.230469 24.511719 231.617188 24.632812 231.617188 24.753906 C 231.617188 25 230.515625 31.371094 229.167969 39.09375 C 227.082031 51.714844 226.960938 53.1875 228.675781 54.410156 C 230.023438 55.515625 230.269531 56.863281 229.65625 59.3125 C 228.800781 62.746094 228.800781 62.746094 221.570312 62.011719 C 217.523438 61.519531 213.601562 60.90625 212.746094 60.539062 C 210.539062 59.679688 211.765625 53.0625 214.339844 52.328125 C 215.929688 51.960938 216.789062 48.652344 218.503906 37.378906 C 219.609375 29.410156 220.34375 22.671875 220.097656 22.304688 C 218.996094 21.324219 216.910156 23.40625 216.910156 25.613281 C 216.910156 27.328125 216.054688 27.574219 212.5 27.207031 L 208.089844 26.714844 L 208.824219 20.464844 C 209.925781 12.746094 210.292969 12.132812 213.601562 12.867188 C 215.074219 13.113281 221.570312 14.339844 227.941406 15.320312 Z M 168.261719 28.308594 C 167.648438 28.800781 165.195312 29.65625 162.746094 30.023438 C 158.945312 30.761719 158.089844 30.515625 158.089844 28.921875 C 158.089844 26.59375 157.230469 26.46875 152.082031 28.308594 C 147.792969 29.78125 147.792969 30.023438 149.632812 35.417969 C 150.859375 38.96875 151.347656 39.214844 154.65625 38.480469 C 161.152344 37.132812 163.113281 44.609375 156.984375 46.691406 C 153.429688 47.917969 153.429688 48.039062 154.902344 52.449219 C 156.617188 57.476562 158.457031 58.332031 163.480469 56.496094 C 166.054688 55.390625 166.542969 54.65625 165.929688 52.207031 C 165.320312 49.753906 165.808594 49.140625 169.238281 47.917969 C 171.324219 47.179688 173.53125 46.570312 174.140625 46.570312 C 175.488281 46.570312 179.042969 59.191406 177.941406 60.171875 C 177.449219 60.539062 169.976562 63.113281 161.398438 65.929688 L 145.710938 70.832031 L 144.484375 67.769531 C 143.015625 63.96875 143.136719 62.5 144.609375 62.5 C 146.570312 62.5 146.199219 60.417969 141.910156 46.324219 C 138.726562 36.03125 137.378906 33.089844 135.660156 33.089844 C 133.457031 33.089844 132.84375 31.984375 132.109375 27.820312 C 131.738281 25.859375 134.3125 24.632812 148.285156 20.34375 L 164.828125 15.074219 L 167.035156 21.324219 C 168.136719 24.632812 168.75 27.820312 168.261719 28.308594 Z M 276.101562 29.410156 C 283.945312 32.964844 290.441406 36.519531 290.441406 37.253906 C 290.441406 37.988281 289.339844 40.929688 287.988281 43.871094 L 285.660156 49.019531 L 281.25 46.9375 C 277.695312 45.21875 276.960938 44.238281 277.449219 42.15625 C 278.0625 40.074219 277.328125 39.214844 273.285156 37.621094 C 270.589844 36.640625 268.382812 35.90625 268.382812 36.152344 C 268.382812 36.273438 267.523438 38.480469 266.542969 40.929688 C 264.707031 45.21875 264.707031 45.34375 268.382812 47.179688 C 272.058594 49.019531 272.058594 49.140625 270.21875 52.695312 C 268.628906 55.882812 268.015625 56.128906 265.195312 55.148438 C 260.90625 53.429688 261.152344 53.429688 259.070312 58.210938 C 256.863281 63.726562 256.738281 63.480469 261.398438 65.441406 C 264.949219 66.910156 265.441406 66.910156 267.402344 64.582031 C 269.363281 62.011719 269.609375 62.011719 273.773438 64.09375 C 278.554688 66.300781 278.554688 67.035156 273.898438 75.859375 L 272.058594 79.410156 L 256.496094 72.550781 C 247.792969 68.871094 240.6875 65.6875 240.441406 65.5625 C 240.320312 65.441406 240.808594 63.601562 241.542969 61.398438 C 242.523438 58.578125 243.503906 57.71875 245.097656 58.210938 C 246.8125 58.699219 248.285156 56.371094 252.941406 45.097656 C 256.617188 36.640625 258.332031 31.128906 257.476562 30.882812 C 255.761719 30.269531 255.761719 29.289062 257.351562 25.121094 C 258.089844 23.285156 259.3125 22.058594 260.171875 22.425781 C 260.90625 22.671875 268.136719 25.859375 276.101562 29.410156 Z M 122.792969 35.171875 C 123.285156 35.417969 125.367188 38.726562 127.449219 42.523438 C 132.351562 51.714844 131.738281 55.390625 124.265625 59.925781 C 121.324219 61.640625 118.871094 63.601562 118.871094 64.214844 C 118.871094 66.667969 124.019531 73.40625 125.488281 72.792969 C 126.960938 72.304688 131.984375 78.0625 130.882812 79.042969 C 130.636719 79.289062 126.839844 81.371094 122.425781 83.824219 L 114.339844 88.234375 L 112.988281 85.050781 C 112.132812 83.332031 111.765625 80.761719 112.132812 79.289062 C 112.988281 75.734375 100.367188 53.1875 97.671875 53.675781 C 95.464844 54.042969 91.300781 47.917969 92.769531 46.570312 C 93.261719 45.957031 98.652344 42.769531 104.78125 39.339844 C 115.195312 33.578125 118.503906 32.71875 122.792969 35.171875 Z M 316.300781 55.269531 C 322.179688 60.171875 322.304688 60.292969 320.097656 63.113281 C 318.996094 64.828125 317.402344 66.175781 316.789062 66.175781 C 315.320312 66.175781 303.921875 92.523438 303.921875 95.710938 C 303.921875 96.8125 302.820312 98.652344 301.46875 99.878906 C 299.265625 101.960938 298.898438 101.839844 294.117188 98.039062 C 291.421875 95.957031 289.214844 93.75 289.214844 93.261719 C 289.214844 91.300781 293.136719 87.011719 294.976562 87.011719 C 296.691406 87.011719 296.691406 86.640625 294.730469 84.558594 C 292.523438 82.109375 288.359375 81.003906 289.828125 83.210938 C 290.195312 83.824219 289.214844 85.785156 287.746094 87.5 L 284.925781 90.6875 L 279.410156 86.03125 C 274.511719 81.738281 274.140625 81.003906 275.613281 79.167969 C 276.59375 77.941406 278.921875 76.347656 280.636719 75.613281 C 285.785156 73.285156 306.25 58.332031 305.636719 57.351562 C 305.023438 56.496094 308.824219 50.367188 309.925781 50.246094 C 310.171875 50.246094 312.988281 52.449219 316.300781 55.269531 Z M 93.871094 75.488281 C 111.398438 91.789062 111.519531 92.402344 99.632812 104.410156 C 94.730469 109.3125 90.320312 112.746094 88.847656 112.746094 C 87.378906 112.746094 80.390625 107.351562 71.9375 99.632812 C 61.273438 89.828125 57.597656 85.785156 57.597656 83.578125 C 57.597656 81.738281 60.292969 77.574219 64.582031 72.671875 C 71.199219 65.074219 74.386719 62.746094 78.308594 62.621094 C 79.167969 62.5 86.273438 68.382812 93.871094 75.488281 Z M 346.8125 85.660156 C 349.511719 89.707031 351.714844 93.382812 351.714844 93.871094 C 351.714844 94.363281 347.058594 99.878906 341.300781 106.128906 L 330.761719 117.523438 L 342.769531 112.867188 C 361.519531 105.515625 359.4375 105.390625 365.074219 114.214844 L 370.097656 121.9375 L 367.402344 124.140625 C 365.929688 125.367188 363.726562 126.101562 362.378906 125.734375 C 359.4375 125 337.011719 139.214844 337.011719 141.789062 C 337.011719 143.871094 333.578125 146.9375 331.371094 147.058594 C 330.636719 147.058594 328.0625 143.996094 325.613281 140.441406 L 321.078125 133.699219 L 324.632812 131.25 C 326.714844 129.65625 328.429688 129.167969 329.167969 129.902344 C 329.902344 130.636719 332.230469 129.902344 335.171875 127.820312 C 343.015625 122.671875 342.769531 122.550781 331.371094 125.734375 C 318.015625 129.410156 318.136719 129.410156 316.175781 125.734375 C 314.707031 122.917969 315.195312 122.058594 322.425781 113.234375 C 326.714844 107.964844 329.410156 104.167969 328.429688 104.78125 C 319.730469 109.925781 317.523438 111.640625 318.136719 113.113281 C 318.628906 114.460938 314.09375 118.871094 312.132812 118.871094 C 311.519531 118.871094 302.695312 104.65625 302.695312 103.675781 C 302.695312 103.308594 304.167969 102.082031 305.882812 100.980469 C 308.457031 99.265625 309.191406 99.140625 310.050781 100.488281 C 311.519531 102.820312 336.152344 87.132812 335.171875 84.558594 C 334.558594 82.964844 338.726562 78.554688 340.929688 78.429688 C 341.421875 78.429688 343.996094 81.738281 346.8125 85.660156 Z M 49.753906 97.550781 C 51.46875 98.773438 52.574219 100.367188 52.207031 101.226562 C 51.347656 103.554688 77.082031 116.910156 79.042969 115.195312 C 80.636719 113.847656 87.011719 115.929688 87.011719 117.648438 C 87.011719 118.261719 80.023438 131.984375 78.921875 133.332031 C 78.800781 133.578125 76.960938 132.84375 74.753906 131.738281 C 71.691406 130.148438 71.199219 129.410156 72.304688 128.0625 C 73.40625 126.714844 72.671875 125.859375 68.628906 123.773438 C 65.808594 122.304688 63.359375 121.324219 63.113281 121.570312 C 62.132812 122.792969 60.050781 127.449219 60.050781 128.675781 C 60.050781 129.289062 62.011719 130.882812 64.460938 131.984375 C 67.890625 133.699219 68.996094 133.824219 69.730469 132.597656 C 70.464844 131.371094 71.570312 131.496094 74.511719 133.210938 L 78.308594 135.417969 L 74.511719 142.15625 C 69.484375 151.101562 69.484375 151.101562 65.6875 149.386719 C 63.601562 148.40625 62.621094 147.179688 63.113281 145.957031 C 63.96875 143.136719 37.378906 129.042969 36.273438 131.738281 C 35.660156 133.457031 35.171875 133.457031 31.863281 131.738281 C 29.902344 130.761719 28.1875 129.535156 28.1875 129.167969 C 28.1875 127.449219 35.785156 113.96875 36.765625 113.96875 C 39.949219 113.96875 44.117188 116.910156 43.503906 118.871094 C 43.015625 120.21875 44.117188 121.445312 47.179688 122.917969 L 51.46875 125 L 53.429688 121.078125 C 55.515625 117.035156 55.515625 117.035156 49.878906 113.847656 C 48.285156 112.988281 47.179688 112.988281 45.957031 113.96875 C 44.238281 115.441406 37.988281 113.359375 37.988281 111.273438 C 37.988281 109.804688 45.21875 95.589844 45.957031 95.589844 C 46.324219 95.589844 48.039062 96.445312 49.753906 97.550781 Z M 358.699219 159.191406 C 361.03125 161.152344 362.378906 161.398438 364.707031 160.417969 C 369.484375 158.699219 369.976562 159.070312 368.871094 163.113281 C 367.890625 166.300781 368.261719 167.648438 370.21875 170.464844 L 372.671875 174.019531 L 368.503906 174.019531 C 365.074219 174.019531 363.726562 174.753906 361.765625 177.820312 L 359.3125 181.738281 L 357.71875 177.207031 C 356.371094 173.652344 355.390625 172.671875 351.839844 172.058594 L 347.550781 171.199219 L 351.101562 168.382812 C 354.042969 166.054688 354.65625 164.707031 354.410156 161.152344 C 353.921875 156.25 354.535156 156.003906 358.699219 159.191406 Z M 44.117188 173.285156 C 44.117188 176.46875 44.976562 178.0625 47.550781 180.023438 L 50.859375 182.476562 L 46.9375 184.070312 C 43.75 185.171875 42.769531 186.519531 42.15625 189.707031 L 41.421875 193.75 L 38.113281 190.6875 C 35.90625 188.601562 33.457031 187.5 30.761719 187.5 L 26.839844 187.5 L 28.921875 183.945312 C 30.636719 181.128906 30.761719 179.78125 29.65625 176.59375 L 28.308594 172.792969 L 32.84375 173.53125 C 36.519531 174.140625 37.867188 173.773438 39.707031 171.691406 C 43.015625 168.015625 44.117188 168.503906 44.117188 173.285156 Z M 368.136719 204.535156 C 372.179688 202.695312 372.917969 203.429688 371.324219 207.71875 C 370.21875 210.539062 370.464844 211.640625 372.550781 213.847656 C 375.859375 217.402344 375.613281 218.136719 370.957031 218.136719 C 367.769531 218.136719 366.542969 218.871094 364.582031 222.058594 L 362.253906 226.101562 L 360.539062 221.570312 C 359.191406 218.261719 357.84375 216.789062 355.269531 216.300781 C 350.859375 215.320312 350.734375 214.09375 354.78125 211.519531 C 357.109375 210.050781 357.84375 208.457031 357.84375 205.148438 L 357.84375 200.859375 L 361.398438 203.308594 C 364.460938 205.515625 365.441406 205.636719 368.136719 204.535156 Z M 44.117188 219.238281 C 44.117188 221.9375 45.097656 223.652344 47.917969 225.613281 L 51.714844 228.308594 L 47.917969 229.902344 C 45.832031 230.761719 43.871094 232.351562 43.503906 233.457031 C 41.542969 239.707031 41.789062 239.582031 38.234375 236.152344 C 35.785156 233.824219 34.070312 233.210938 31.617188 233.699219 C 27.695312 234.4375 27.328125 233.332031 30.148438 229.289062 C 31.738281 227.082031 31.863281 225.859375 30.761719 223.53125 C 28.675781 218.871094 29.042969 218.261719 33.332031 219.484375 C 36.640625 220.34375 37.746094 220.097656 39.707031 218.136719 C 43.136719 214.828125 44.117188 215.074219 44.117188 219.238281 Z M 358.457031 248.773438 C 362.988281 247.058594 362.867188 247.058594 362.011719 252.207031 C 361.519531 255.636719 361.765625 257.230469 363.234375 258.457031 C 366.175781 260.90625 365.5625 262.253906 361.886719 262.253906 C 359.558594 262.253906 357.476562 263.480469 355.269531 266.175781 L 352.082031 269.976562 L 350.613281 265.6875 C 349.511719 262.253906 348.40625 261.152344 345.21875 260.539062 L 341.300781 259.679688 L 344.730469 256.738281 C 347.179688 254.535156 348.039062 252.695312 348.039062 249.386719 L 348.039062 244.976562 L 351.59375 247.425781 C 354.535156 249.511719 355.761719 249.753906 358.457031 248.773438 Z M 62.746094 268.503906 L 66.542969 271.691406 L 62.621094 273.039062 C 59.804688 274.019531 58.578125 275.367188 58.089844 278.1875 C 57.109375 282.476562 56.371094 282.71875 53.308594 279.410156 C 51.960938 277.941406 49.511719 276.960938 46.9375 276.960938 C 42.28125 276.960938 42.15625 276.714844 44.851562 272.550781 C 46.570312 270.097656 46.691406 268.871094 45.464844 266.421875 C 43.382812 261.765625 43.75 261.152344 47.917969 262.253906 C 51.101562 263.234375 52.449219 262.867188 55.023438 260.90625 L 58.210938 258.332031 L 58.578125 261.765625 C 58.824219 263.96875 60.539062 266.542969 62.746094 268.503906 Z M 62.746094 268.503906 "/>
<path style=" stroke:none;fill-rule:nonzero;fill:rgb(0%,0%,0%);fill-opacity:1;" d="M 111.152344 45.832031 C 109.070312 47.425781 109.070312 47.671875 111.152344 51.347656 C 113.601562 55.515625 115.320312 56.128906 117.523438 53.429688 C 118.75 52.082031 118.628906 50.859375 117.035156 47.917969 C 114.949219 43.628906 114.339844 43.503906 111.152344 45.832031 Z M 111.152344 45.832031 "/>
<path style=" stroke:none;fill-rule:nonzero;fill:rgb(0%,0%,0%);fill-opacity:1;" d="M 298.53125 75.488281 C 296.691406 76.714844 296.445312 77.574219 297.425781 78.554688 C 298.40625 79.535156 299.140625 79.167969 300.246094 77.207031 C 300.980469 75.734375 301.46875 74.386719 301.226562 74.140625 C 300.980469 73.898438 299.753906 74.511719 298.53125 75.488281 Z M 298.53125 75.488281 "/>
<path style=" stroke:none;fill-rule:nonzero;fill:rgb(0%,0%,0%);fill-opacity:1;" d="M 71.9375 77.695312 L 68.628906 81.863281 L 79.410156 91.789062 L 90.074219 101.59375 L 93.996094 97.792969 L 97.917969 93.996094 L 87.378906 84.070312 C 81.617188 78.554688 76.46875 74.019531 75.980469 73.773438 C 75.488281 73.652344 73.652344 75.367188 71.9375 77.695312 Z M 71.9375 77.695312 "/>
<path style=" stroke:none;fill-rule:nonzero;fill:rgb(0%,0%,0%);fill-opacity:1;" d="M 189.339844 65.195312 C 189.09375 66.054688 187.988281 71.199219 186.886719 76.59375 C 185.660156 81.984375 181.738281 97.671875 178.1875 111.519531 C 174.511719 125.367188 167.890625 154.289062 163.601562 175.859375 C 156.496094 210.539062 155.882812 215.195312 157.476562 216.789062 C 159.070312 218.382812 159.558594 218.382812 161.03125 216.910156 C 161.886719 215.929688 165.5625 201.839844 169.117188 185.660156 C 172.671875 169.484375 175.734375 156.003906 176.101562 155.636719 C 176.960938 154.902344 175.980469 163.480469 171.445312 196.570312 C 167.648438 224.265625 167.769531 227.695312 172.425781 224.753906 C 175.121094 223.039062 184.925781 161.03125 191.910156 101.101562 C 192.648438 94.609375 192.890625 94.117188 193.75 97.304688 C 195.589844 103.921875 202.082031 145.097656 205.882812 174.632812 C 209.804688 204.289062 210.90625 208.210938 215.074219 206.617188 C 217.648438 205.636719 217.890625 207.84375 209.558594 157.84375 C 206.128906 137.867188 203.429688 120.464844 203.554688 119.238281 C 203.675781 113.726562 213.359375 149.511719 220.589844 181.984375 C 222.671875 191.421875 224.632812 200.121094 225 201.226562 C 225.859375 204.042969 231.617188 204.289062 231.617188 201.46875 C 231.617188 197.425781 225.613281 175.488281 215.6875 143.015625 C 210.90625 127.695312 196.078125 68.136719 196.078125 64.582031 C 196.078125 62.988281 189.828125 63.726562 189.339844 65.195312 Z M 189.339844 65.195312 "/>
<path style=" stroke:none;fill-rule:nonzero;fill:rgb(0%,0%,0%);fill-opacity:1;" d="M 202.449219 71.199219 C 202.820312 72.304688 206.128906 73.285156 211.765625 73.773438 C 274.019531 80.023438 321.199219 130.269531 324.386719 193.628906 C 325.121094 210.171875 323.039062 225.121094 317.402344 241.421875 C 315.441406 247.179688 313.601562 252.328125 313.480469 252.941406 C 313.234375 253.554688 313.726562 254.167969 314.339844 254.410156 C 315.808594 255.023438 320.957031 242.15625 324.265625 229.78125 C 326.101562 222.792969 326.59375 216.910156 326.46875 198.53125 C 326.46875 177.449219 326.226562 175.121094 323.160156 164.828125 C 315.808594 140.808594 305.761719 124.019531 288.113281 106.617188 C 266.300781 85.171875 242.035156 74.019531 209.679688 70.464844 C 203.429688 69.730469 201.960938 69.851562 202.449219 71.199219 Z M 202.449219 71.199219 "/>
<path style=" stroke:none;fill-rule:nonzero;fill:rgb(0%,0%,0%);fill-opacity:1;" d="M 172.304688 73.039062 C 135.785156 80.882812 102.820312 107.109375 85.292969 141.910156 C 69.609375 173.160156 68.136719 214.582031 81.496094 248.039062 C 84.679688 255.882812 91.667969 269.238281 95.097656 273.773438 C 98.40625 278.429688 98.53125 274.265625 95.21875 268.628906 C 87.988281 256.617188 81.863281 242.15625 78.921875 230.636719 C 61.640625 162.746094 103.0625 93.261719 170.710938 76.714844 C 176.839844 75.246094 182.109375 73.285156 182.351562 72.550781 C 182.84375 70.832031 182.964844 70.832031 172.304688 73.039062 Z M 172.304688 73.039062 "/>
<path style=" stroke:none;fill-rule:nonzero;fill:rgb(0%,0%,0%);fill-opacity:1;" d="M 2.695312 175.859375 C 2.695312 177.820312 2.941406 178.554688 3.308594 177.328125 C 3.554688 176.226562 3.554688 174.511719 3.308594 173.652344 C 2.941406 172.917969 2.695312 173.773438 2.695312 175.859375 Z M 2.695312 175.859375 "/>
<path style=" stroke:none;fill-rule:nonzero;fill:rgb(0%,0%,0%);fill-opacity:1;" d="M 258.457031 191.542969 C 254.167969 193.871094 235.90625 203.308594 217.769531 212.5 C 199.753906 221.8125 185.292969 229.902344 185.785156 230.515625 C 186.152344 231.128906 187.011719 231.25 187.746094 230.882812 C 188.480469 230.390625 189.460938 230.761719 189.949219 231.617188 C 190.6875 232.71875 201.46875 227.695312 229.65625 213.113281 C 250.859375 202.082031 268.628906 192.402344 268.871094 191.542969 C 269.238281 190.808594 268.75 189.582031 267.890625 188.847656 C 266.667969 187.746094 264.339844 188.480469 258.457031 191.542969 Z M 258.457031 191.542969 "/>
<path style=" stroke:none;fill-rule:nonzero;fill:rgb(0%,0%,0%);fill-opacity:1;" d="M 232.230469 213.234375 C 212.867188 223.40625 196.445312 231.617188 195.832031 231.617188 C 195.34375 231.617188 194.851562 232.109375 194.851562 232.71875 C 194.851562 233.824219 206.371094 237.746094 209.4375 237.746094 C 210.292969 237.746094 210.292969 236.765625 209.3125 234.679688 C 207.109375 229.78125 210.90625 226.960938 240.320312 212.011719 C 264.828125 199.632812 269.484375 196.8125 268.136719 195.464844 C 267.890625 195.21875 251.714844 203.1875 232.230469 213.234375 Z M 232.230469 213.234375 "/>
<path style=" stroke:none;fill-rule:nonzero;fill:rgb(0%,0%,0%);fill-opacity:1;" d="M 243.871094 214.582031 C 228.675781 222.550781 215.808594 229.78125 215.195312 230.761719 C 213.234375 233.824219 215.5625 238.847656 220.589844 242.035156 C 224.140625 244.363281 225.613281 246.078125 226.226562 249.386719 C 226.839844 252.695312 227.449219 253.554688 229.042969 253.0625 C 230.148438 252.695312 243.75 245.832031 259.191406 237.746094 C 274.753906 229.65625 288.359375 223.285156 289.460938 223.53125 C 291.175781 223.898438 290.441406 221.9375 286.519531 214.582031 C 278.675781 200 278.429688 199.753906 274.753906 199.878906 C 272.917969 200 259.070312 206.496094 243.871094 214.582031 Z M 243.871094 214.582031 "/>
<path style=" stroke:none;fill-rule:nonzero;fill:rgb(0%,0%,0%);fill-opacity:1;" d="M 117.28125 217.769531 C 116.789062 218.136719 116.421875 219.484375 116.421875 220.589844 C 116.421875 222.058594 122.304688 224.386719 141.300781 230.148438 C 174.753906 240.441406 206.738281 250.980469 205.148438 251.101562 C 203.921875 251.226562 180.390625 244.117188 140.929688 231.617188 C 130.515625 228.308594 120.832031 225.488281 119.609375 225.246094 C 117.15625 224.878906 117.035156 225.246094 109.679688 249.386719 C 107.84375 255.390625 105.636719 262.746094 104.78125 265.5625 C 103.1875 270.34375 103.308594 270.589844 105.761719 271.324219 C 107.230469 271.691406 112.867188 272.058594 118.261719 272.058594 C 140.808594 272.179688 175.488281 283.824219 197.304688 298.53125 C 199.632812 300.121094 201.960938 301.46875 202.449219 301.46875 C 203.1875 301.46875 205.148438 295.097656 205.269531 292.402344 C 205.269531 291.789062 201.101562 290.074219 196.078125 288.601562 C 153.554688 275.734375 141.910156 271.570312 140.808594 268.75 C 139.707031 265.808594 145.464844 244.117188 148.285156 240.808594 C 150.859375 237.746094 155.269531 238.601562 182.84375 247.425781 C 197.425781 252.082031 211.152344 256.25 213.113281 256.738281 C 218.75 257.964844 217.769531 255.390625 211.765625 253.1875 C 208.699219 252.082031 208.089844 251.59375 210.171875 252.082031 C 223.039062 254.902344 225.488281 250.859375 213.234375 246.691406 C 206.617188 244.484375 126.226562 219.238281 119.976562 217.402344 C 118.996094 217.15625 117.769531 217.28125 117.28125 217.769531 Z M 117.28125 217.769531 "/>
<path style=" stroke:none;fill-rule:nonzero;fill:rgb(0%,0%,0%);fill-opacity:1;" d="M 287.988281 227.328125 C 287.988281 228.800781 290.929688 234.070312 291.789062 234.070312 C 293.136719 234.070312 294.484375 229.410156 293.503906 227.941406 C 292.769531 226.714844 287.988281 226.101562 287.988281 227.328125 Z M 287.988281 227.328125 "/>
<path style=" stroke:none;fill-rule:nonzero;fill:rgb(0%,0%,0%);fill-opacity:1;" d="M 269.609375 236.640625 C 238.359375 253.0625 227.207031 258.578125 225.121094 258.578125 C 222.671875 258.578125 222.425781 259.925781 224.511719 262.011719 C 225.488281 262.988281 226.59375 262.867188 229.042969 261.152344 C 239.828125 253.554688 266.054688 243.136719 281.863281 240.074219 C 286.273438 239.339844 290.074219 238.480469 290.320312 238.234375 C 290.929688 237.746094 285.539062 229.167969 284.558594 229.167969 C 284.070312 229.167969 277.328125 232.597656 269.609375 236.640625 Z M 269.609375 236.640625 "/>
<path style=" stroke:none;fill-rule:nonzero;fill:rgb(0%,0%,0%);fill-opacity:1;" d="M 280.761719 242.035156 C 257.597656 247.179688 226.347656 262.011719 225.859375 268.261719 L 225.613281 270.957031 L 230.761719 267.890625 C 247.792969 257.351562 268.503906 249.019531 284.679688 246.199219 C 291.300781 245.097656 292.890625 244.363281 292.648438 242.769531 C 292.15625 240.195312 290.074219 240.074219 280.761719 242.035156 Z M 280.761719 242.035156 "/>
<path style=" stroke:none;fill-rule:nonzero;fill:rgb(0%,0%,0%);fill-opacity:1;" d="M 150.246094 247.304688 C 147.917969 251.839844 145.21875 265.074219 146.199219 267.402344 C 146.9375 269.484375 149.878906 270.589844 185.660156 281.371094 C 198.53125 285.292969 209.925781 289.214844 211.03125 290.195312 C 212.867188 291.667969 213.234375 291.789062 213.847656 290.320312 C 214.214844 289.339844 216.054688 283.824219 218.015625 277.941406 C 221.445312 267.769531 221.570312 267.035156 219.609375 264.828125 C 217.402344 262.132812 161.03125 243.871094 155.148438 243.871094 C 152.941406 243.871094 151.46875 244.851562 150.246094 247.304688 Z M 150.246094 247.304688 "/>
<path style=" stroke:none;fill-rule:nonzero;fill:rgb(0%,0%,0%);fill-opacity:1;" d="M 284.925781 248.285156 C 280.269531 249.140625 272.179688 251.347656 267.15625 253.1875 C 262.132812 254.902344 257.230469 256.617188 256.496094 256.863281 C 255.390625 257.109375 257.597656 262.5 262.867188 272.425781 C 270.957031 287.988281 272.425781 293.75 269.609375 299.140625 C 267.890625 302.207031 262.011719 305.148438 257.71875 305.148438 C 250.859375 305.148438 247.304688 301.347656 239.214844 285.660156 C 234.925781 277.574219 231.25 270.832031 230.882812 270.832031 C 230.515625 270.832031 228.921875 271.691406 227.328125 272.792969 C 225.121094 274.265625 223.285156 278.1875 219.976562 288.359375 C 215.320312 302.941406 213.601562 305.761719 208.824219 306.863281 C 205.515625 307.71875 205.390625 308.699219 207.109375 317.035156 C 207.71875 320.21875 208.578125 324.265625 208.824219 325.980469 C 209.679688 331.128906 213.234375 348.53125 213.96875 350.734375 C 214.339844 352.082031 215.929688 352.941406 217.890625 353.0625 L 221.199219 353.1875 L 217.523438 354.78125 L 213.847656 356.371094 L 216.910156 357.597656 C 218.628906 358.210938 220.832031 359.070312 221.8125 359.4375 C 222.792969 359.804688 221.8125 360.171875 219.609375 360.171875 C 215.5625 360.292969 215.5625 360.417969 216.300781 364.828125 C 219.484375 384.925781 231.25 404.042969 243.871094 409.679688 C 254.535156 414.582031 274.878906 411.640625 304.78125 400.980469 C 327.820312 392.648438 344.484375 383.457031 355.761719 372.671875 C 362.867188 365.929688 365.195312 361.886719 365.195312 356.128906 C 365.195312 349.265625 364.214844 348.039062 358.824219 348.039062 C 351.960938 348.039062 347.425781 345.21875 342.769531 337.867188 C 330.023438 318.015625 306.738281 309.3125 284.558594 316.054688 C 269.484375 320.589844 255.023438 332.230469 249.878906 343.871094 C 245.21875 354.289062 244.730469 372.304688 248.652344 382.71875 C 249.386719 384.679688 250 387.378906 250 388.847656 C 250 394.484375 246.324219 387.746094 244.363281 378.675781 C 239.828125 357.351562 244.609375 341.054688 259.070312 327.449219 C 275.613281 312.011719 297.792969 306.617188 316.175781 313.359375 C 322.550781 315.6875 325.980469 317.648438 332.476562 322.671875 C 335.050781 324.632812 337.378906 325.980469 337.746094 325.734375 C 338.234375 325.121094 330.636719 311.398438 326.347656 305.390625 C 325.367188 303.921875 325 302.695312 325.734375 302.695312 C 327.449219 302.695312 333.210938 309.679688 335.539062 314.582031 C 337.621094 318.996094 338.359375 319.238281 342.035156 317.402344 C 345.097656 315.6875 344.976562 317.035156 341.910156 319.609375 C 339.707031 321.445312 339.582031 322.179688 340.808594 325.734375 C 342.035156 329.289062 342.648438 329.78125 345.464844 329.167969 C 348.40625 328.429688 348.53125 328.554688 346.445312 330.148438 C 344.363281 331.738281 344.363281 332.476562 345.464844 336.152344 C 347.550781 342.28125 350.859375 344.730469 357.230469 344.851562 C 365.074219 344.976562 366.910156 342.769531 367.402344 331.617188 C 367.769531 324.386719 367.402344 321.445312 365.320312 316.667969 C 361.273438 307.597656 347.792969 288.234375 339.828125 280.148438 C 330.761719 270.832031 325.367188 267.402344 313.96875 263.480469 C 305.269531 260.539062 304.167969 259.804688 299.878906 253.675781 C 297.304688 250 294.851562 246.8125 294.363281 246.691406 C 293.871094 246.691406 289.707031 247.304688 284.925781 248.285156 Z M 338.726562 362.378906 C 333.945312 370.589844 324.140625 379.902344 315.441406 384.191406 C 308.578125 387.746094 307.476562 387.867188 293.503906 387.746094 C 275.859375 387.621094 267.28125 385.417969 260.417969 379.410156 C 256.617188 376.226562 255.882812 374.878906 256.984375 373.773438 C 258.824219 371.8125 264.582031 373.773438 274.878906 379.902344 C 279.289062 382.597656 284.191406 384.804688 285.785156 384.804688 C 290.6875 384.804688 311.886719 379.042969 317.523438 376.226562 C 325.613281 372.179688 334.804688 364.828125 338.234375 359.925781 C 342.523438 353.675781 342.769531 355.269531 338.726562 362.378906 Z M 338.726562 362.378906 "/>
<path style=" stroke:none;fill-rule:nonzero;fill:rgb(0%,0%,0%);fill-opacity:1;" d="M 249.753906 259.925781 C 247.792969 261.03125 248.285156 262.5 254.902344 275.734375 C 262.746094 291.300781 263.480469 294.484375 260.171875 296.445312 C 256.371094 298.53125 253.800781 295.589844 246.324219 280.515625 C 239.582031 267.15625 238.726562 265.929688 236.519531 267.15625 C 235.171875 267.890625 234.070312 268.996094 234.070312 269.730469 C 234.070312 271.9375 246.445312 295.34375 249.632812 299.140625 C 253.675781 303.921875 260.90625 304.167969 265.320312 299.632812 C 270.34375 294.730469 269.484375 289.828125 260.785156 273.160156 C 256.496094 265.195312 252.820312 258.578125 252.449219 258.578125 C 252.082031 258.699219 250.859375 259.191406 249.753906 259.925781 Z M 249.753906 259.925781 "/>
<path style=" stroke:none;fill-rule:nonzero;fill:rgb(0%,0%,0%);fill-opacity:1;" d="M 101.714844 275.734375 C 101.714844 277.941406 102.574219 278.1875 111.886719 278.1875 C 137.988281 278.1875 166.421875 286.765625 189.582031 301.714844 C 194.117188 304.65625 198.53125 307.476562 199.265625 307.964844 C 200.121094 308.457031 200.980469 307.84375 201.347656 306.496094 C 201.839844 304.65625 200.367188 303.0625 195.464844 299.753906 C 186.273438 293.75 168.871094 285.171875 157.84375 281.371094 C 145.957031 277.328125 122.550781 273.285156 110.785156 273.285156 C 102.574219 273.285156 101.714844 273.53125 101.714844 275.734375 Z M 101.714844 275.734375 "/>
<path style=" stroke:none;fill-rule:nonzero;fill:rgb(0%,0%,0%);fill-opacity:1;" d="M 88.113281 297.304688 C 59.804688 337.011719 49.753906 356.371094 48.160156 374.632812 C 46.8125 390.808594 51.101562 398.773438 66.667969 409.191406 C 110.050781 438.113281 161.152344 451.226562 174.265625 436.765625 C 177.207031 433.332031 177.449219 430.023438 174.753906 428.429688 C 173.039062 427.449219 172.304688 427.449219 171.9375 428.554688 C 171.570312 429.410156 170.832031 430.148438 170.21875 430.148438 C 169.484375 430.148438 169.484375 429.167969 170.34375 427.820312 C 171.570312 425.246094 169.730469 419.117188 167.769531 419.117188 C 167.15625 419.117188 167.28125 417.648438 167.890625 415.929688 C 169.730469 411.273438 169.484375 410.539062 166.175781 410.539062 C 164.460938 410.539062 162.867188 410.050781 162.5 409.558594 C 162.132812 408.945312 163.480469 408.824219 165.441406 409.070312 C 169.238281 409.558594 172.425781 406.128906 173.039062 400.734375 C 173.40625 398.039062 172.917969 397.671875 169.976562 397.917969 C 168.136719 398.039062 166.910156 397.671875 167.28125 396.9375 C 167.769531 396.324219 169.609375 395.832031 171.570312 395.832031 C 174.632812 395.832031 175.246094 395.097656 177.082031 389.828125 C 178.1875 386.398438 179.289062 381.371094 179.535156 378.554688 C 180.148438 372.550781 180.882812 371.570312 182.84375 373.53125 C 183.945312 374.632812 183.824219 376.839844 182.109375 383.332031 C 180.269531 390.195312 180.269531 391.667969 181.617188 392.523438 C 182.84375 393.382812 182.351562 394.609375 179.167969 398.039062 C 175.246094 402.082031 175.121094 402.574219 177.207031 404.042969 C 179.289062 405.515625 179.289062 405.636719 176.839844 405.636719 C 173.652344 405.636719 169.976562 413.96875 171.078125 418.503906 C 172.058594 422.304688 178.1875 427.695312 181.496094 427.695312 C 187.378906 427.695312 193.996094 422.058594 198.40625 413.359375 C 202.449219 405.269531 207.109375 384.3125 207.964844 370.710938 C 208.824219 355.390625 207.230469 347.058594 201.347656 335.171875 L 196.8125 325.980469 L 198.40625 318.261719 C 200 310.660156 200 310.660156 196.691406 308.210938 C 190.074219 303.1875 170.589844 292.648438 161.152344 289.09375 C 148.039062 283.945312 132.230469 280.761719 115.195312 279.902344 L 101.101562 279.042969 Z M 92.890625 320.710938 C 76.226562 355.390625 75.488281 357.597656 76.226562 372.425781 C 76.714844 382.476562 77.328125 385.292969 80.636719 391.542969 C 84.558594 399.265625 92.648438 408.332031 98.40625 411.273438 C 102.820312 413.601562 102.574219 414.339844 97.792969 413.359375 C 85.785156 411.03125 73.40625 401.839844 71.078125 393.503906 C 70.464844 391.054688 69.851562 385.660156 69.851562 381.371094 C 69.851562 374.140625 69.609375 373.53125 66.175781 371.570312 C 61.152344 368.75 61.398438 364.339844 67.28125 352.820312 C 72.425781 342.523438 104.410156 292.769531 105.148438 293.503906 C 105.515625 293.75 99.878906 306.003906 92.890625 320.710938 Z M 92.890625 320.710938 "/>
<path style=" stroke:none;fill-rule:nonzero;fill:rgb(0%,0%,0%);fill-opacity:1;" d="M 207.109375 295.832031 C 206.496094 297.671875 205.882812 299.386719 205.882812 299.753906 C 205.882812 300.980469 209.4375 300 210.785156 298.285156 C 212.132812 296.8125 212.011719 296.078125 210.417969 294.484375 C 208.578125 292.648438 208.332031 292.769531 207.109375 295.832031 Z M 207.109375 295.832031 "/>
<path style=" stroke:none;fill-rule:nonzero;fill:rgb(0%,0%,0%);fill-opacity:1;" d="M 52.082031 345.710938 C 51.59375 346.445312 51.46875 347.179688 51.839844 347.550781 C 52.082031 347.917969 52.695312 347.304688 53.0625 346.199219 C 53.921875 344.117188 53.1875 343.75 52.082031 345.710938 Z M 52.082031 345.710938 "/>
<path style=" stroke:none;fill-rule:nonzero;fill:rgb(0%,0%,0%);fill-opacity:1;" d="M 316.789062 402.574219 C 314.828125 403.554688 313.96875 404.289062 314.949219 404.289062 C 315.929688 404.289062 318.136719 403.554688 319.851562 402.574219 C 323.773438 400.367188 321.691406 400.367188 316.789062 402.574219 Z M 316.789062 402.574219 "/>
</g>
</svg>
